<svg width="24" height="23" viewBox="0 0 24 23" fill="none" xmlns="http://www.w3.org/2000/svg">
<g id="Social Media Icon Square/Instagram">
<path id="Instagram" fill-rule="evenodd" clip-rule="evenodd" d="M1.79199 11.2705C1.79199 6.95765 1.79199 4.80123 2.81971 3.24802C3.27863 2.55444 3.87262 1.96045 4.5662 1.50153C6.11941 0.473816 8.27583 0.473816 12.5887 0.473816C16.9015 0.473816 19.0579 0.473816 20.6111 1.50153C21.3047 1.96045 21.8987 2.55444 22.3576 3.24802C23.3853 4.80123 23.3853 6.95765 23.3853 11.2705C23.3853 15.5833 23.3853 17.7397 22.3576 19.293C21.8987 19.9865 21.3047 20.5805 20.6111 21.0395C19.0579 22.0672 16.9015 22.0672 12.5887 22.0672C8.27583 22.0672 6.11941 22.0672 4.5662 21.0395C3.87262 20.5805 3.27863 19.9865 2.81971 19.293C1.79199 17.7397 1.79199 15.5833 1.79199 11.2705ZM18.178 11.2707C18.178 14.3577 15.6754 16.8602 12.5884 16.8602C9.50138 16.8602 6.99885 14.3577 6.99885 11.2707C6.99885 8.18363 9.50138 5.68109 12.5884 5.68109C15.6754 5.68109 18.178 8.18363 18.178 11.2707ZM12.5884 14.9691C14.631 14.9691 16.2869 13.3133 16.2869 11.2707C16.2869 9.22805 14.631 7.5722 12.5884 7.5722C10.5458 7.5722 8.88995 9.22805 8.88995 11.2707C8.88995 13.3133 10.5458 14.9691 12.5884 14.9691ZM18.3988 6.71364C19.1241 6.71364 19.7122 6.12562 19.7122 5.40025C19.7122 4.67489 19.1241 4.08687 18.3988 4.08687C17.6734 4.08687 17.0854 4.67489 17.0854 5.40025C17.0854 6.12562 17.6734 6.71364 18.3988 6.71364Z" fill="#00AF51"/>
</g>
</svg>
