<svg width="24" height="23" viewBox="0 0 24 23" fill="none" xmlns="http://www.w3.org/2000/svg">
<g id="Social Media Icon Square/LinkedIn">
<g id="Group 73">
<path id="LinkedIn" d="M1.97656 3.97652C1.97656 3.28408 2.21974 2.71283 2.70607 2.26276C3.1924 1.81268 3.82465 1.58765 4.60278 1.58765C5.36703 1.58765 5.98536 1.80921 6.45781 2.25238C6.94414 2.70938 7.18731 3.30485 7.18731 4.03884C7.18731 4.70357 6.9511 5.2575 6.47865 5.70066C5.99232 6.15767 5.35313 6.38617 4.56109 6.38617H4.54025C3.776 6.38617 3.15767 6.15767 2.68522 5.70066C2.21278 5.24366 1.97656 4.66894 1.97656 3.97652ZM2.24752 22.1527V8.27649H6.87467V22.1527H2.24752ZM9.43836 22.1527H14.0655V14.4045C14.0655 13.9198 14.1211 13.5458 14.2322 13.2827C14.4268 12.8119 14.7221 12.4137 15.1181 12.0883C15.5141 11.7629 16.0108 11.6001 16.6083 11.6001C18.1646 11.6001 18.9428 12.6457 18.9428 14.7368V22.1527H23.5699V14.1967C23.5699 12.1472 23.0836 10.5927 22.1109 9.53325C21.1382 8.47383 19.8529 7.94413 18.2549 7.94413C16.4624 7.94413 15.066 8.71272 14.0655 10.2499V10.2915H14.0447L14.0655 10.2499V8.27649H9.43836C9.46614 8.71964 9.48004 10.0976 9.48004 12.4103C9.48004 14.723 9.46614 17.9705 9.43836 22.1527Z" fill="#00AF51"/>
</g>
</g>
</svg>
