<svg width="24" height="19" viewBox="0 0 24 19" fill="none" xmlns="http://www.w3.org/2000/svg">
<g id="Social Media Icon Square/Twitter">
<path id="Twitter" d="M16.0354 0.514723V0.510834H17.0479L17.4179 0.584721C17.6645 0.63269 17.8884 0.695553 18.0896 0.773329C18.2908 0.851105 18.4856 0.941851 18.6738 1.04555C18.862 1.14924 19.0327 1.2549 19.1859 1.36249C19.3377 1.46879 19.474 1.58156 19.5948 1.70081C19.7142 1.82137 19.9004 1.85248 20.1536 1.79414C20.4067 1.73581 20.6793 1.65479 20.9713 1.55109C21.2634 1.4474 21.5522 1.33073 21.8378 1.2011C22.1234 1.07147 22.2973 0.989159 22.3596 0.954159C22.4206 0.917876 22.4531 0.898432 22.457 0.895827L22.4609 0.889994L22.4803 0.880272L22.4998 0.87055L22.5193 0.860828L22.5388 0.851105L22.5426 0.845272L22.5485 0.841383L22.5544 0.837495L22.5582 0.831661L22.5777 0.825828L22.5972 0.821939L22.5933 0.851105L22.5874 0.880272L22.5777 0.909438L22.568 0.938604L22.5582 0.958048L22.5485 0.977492L22.5388 1.00666C22.5323 1.0261 22.5258 1.05202 22.5193 1.08443C22.5128 1.11685 22.4511 1.24646 22.3343 1.47332C22.2175 1.70017 22.0715 1.93025 21.8962 2.16358C21.721 2.39691 21.5639 2.57319 21.425 2.69246C21.2848 2.81301 21.192 2.89727 21.1466 2.94523C21.1012 2.99449 21.046 3.03985 20.9811 3.08134L20.8837 3.14551L20.8642 3.15523L20.8448 3.16495L20.8409 3.17079L20.835 3.17468L20.8292 3.17856L20.8253 3.1844L20.8058 3.19412L20.7864 3.20384L20.7825 3.20967L20.7766 3.21356L20.7708 3.21745L20.7669 3.22329L20.763 3.22912L20.7572 3.23301L20.7513 3.2369L20.7474 3.24273H20.8448L21.39 3.12607C21.7534 3.04829 22.1007 2.95432 22.4317 2.84413L22.9574 2.66913L23.0158 2.64968L23.045 2.63996L23.0645 2.63024L23.0839 2.62052L23.1034 2.6108L23.1229 2.60107L23.1618 2.59524L23.2008 2.59135V2.63024L23.191 2.63413L23.1813 2.63996L23.1774 2.6458L23.1716 2.64968L23.1657 2.65357L23.1618 2.65941L23.158 2.66524L23.1521 2.66913L23.1462 2.67302L23.1424 2.67885L23.1385 2.68468L23.1326 2.68857L23.1229 2.70802L23.1131 2.72746L23.1073 2.73135C23.1047 2.73524 23.0223 2.84541 22.86 3.0619C22.6978 3.27967 22.6102 3.38984 22.5972 3.39245C22.5842 3.39634 22.566 3.41578 22.5426 3.45078C22.5206 3.48706 22.383 3.63161 22.1299 3.88438C21.8767 4.13716 21.6288 4.36205 21.3861 4.55909C21.1421 4.75742 21.0187 5.00112 21.0161 5.29019C21.0122 5.57797 20.9973 5.90334 20.9713 6.26629C20.9454 6.62925 20.8967 7.02136 20.8253 7.44266C20.7539 7.86395 20.6436 8.34033 20.4943 8.8718C20.345 9.40326 20.1633 9.92178 19.9491 10.4273C19.7349 10.9329 19.511 11.3866 19.2774 11.7884C19.0437 12.1903 18.8295 12.5305 18.6348 12.8092C18.4401 13.0879 18.2422 13.3504 18.041 13.5967C17.8398 13.843 17.5854 14.1204 17.2777 14.4289C16.9688 14.7361 16.8 14.9047 16.7715 14.9345C16.7416 14.963 16.6144 15.0693 16.3898 15.2533C16.1666 15.4387 15.9264 15.6241 15.6694 15.8095C15.4137 15.9935 15.1787 16.1471 14.9645 16.2703C14.7504 16.3934 14.4921 16.5341 14.1896 16.6922C13.8884 16.8517 13.5626 16.9994 13.2121 17.1355C12.8617 17.2716 12.4917 17.398 12.1023 17.5147C11.7129 17.6314 11.3364 17.7221 10.973 17.7869C10.6095 17.8517 10.1974 17.9068 9.73657 17.9522L9.04535 18.0202V18.03H7.77973V18.0202L7.61423 18.0105C7.50391 18.004 7.41303 17.9976 7.34163 17.9911C7.27025 17.9846 7.00089 17.9489 6.53359 17.8841C6.06628 17.8193 5.69959 17.7545 5.43348 17.6897C5.16738 17.6249 4.77146 17.5017 4.24574 17.3203C3.72003 17.1388 3.27025 16.9553 2.8964 16.77C2.52386 16.5859 2.29021 16.4692 2.19545 16.42C2.10199 16.372 1.99684 16.3124 1.88002 16.2411L1.70478 16.1342L1.7009 16.1283L1.69504 16.1244L1.6892 16.1206L1.68531 16.1147L1.66583 16.105L1.64636 16.0953L1.64249 16.0894L1.63663 16.0856L1.63079 16.0817L1.62689 16.0758L1.62302 16.07L1.61716 16.0661H1.60742V16.0272L1.62689 16.0311L1.64636 16.0369L1.73398 16.0467C1.7924 16.0531 1.95142 16.0629 2.21102 16.0758C2.47065 16.0888 2.74648 16.0888 3.03854 16.0758C3.33061 16.0629 3.62917 16.0337 3.93421 15.9883C4.23926 15.943 4.59947 15.8652 5.01485 15.755C5.43024 15.6448 5.81187 15.5139 6.15976 15.3622C6.50635 15.2093 6.75297 15.0952 6.89966 15.02C7.04503 14.9461 7.267 14.8087 7.56555 14.6078L8.01338 14.3064L8.01728 14.3006L8.02312 14.2967L8.02898 14.2928L8.03285 14.287L8.03675 14.2811L8.04259 14.2773L8.04845 14.2734L8.05233 14.2675L8.0718 14.2617L8.09127 14.2578L8.09516 14.2384L8.101 14.2189L8.10686 14.215L8.11074 14.2092L7.95497 14.1995C7.85113 14.193 7.75052 14.1865 7.65317 14.18C7.55581 14.1736 7.4033 14.1444 7.1956 14.0925C6.98792 14.0407 6.76401 13.9629 6.52385 13.8592C6.28372 13.7555 6.05006 13.6324 5.8229 13.4898C5.59575 13.3472 5.43153 13.2286 5.33028 13.1339C5.23033 13.0406 5.10052 12.9084 4.94086 12.7373C4.7825 12.5649 4.6449 12.3879 4.52807 12.2065C4.41125 12.025 4.29962 11.8156 4.19319 11.5784L4.03156 11.2245L4.02183 11.1954L4.01209 11.1662L4.00625 11.1468L4.00236 11.1273L4.03156 11.1312L4.06077 11.137L4.27495 11.1662C4.41775 11.1856 4.64167 11.1921 4.9467 11.1856C5.25175 11.1792 5.46268 11.1662 5.57951 11.1468C5.69633 11.1273 5.76773 11.1143 5.79369 11.1079L5.83263 11.0981L5.88131 11.0884L5.92999 11.0787L5.93388 11.0729L5.93972 11.069L5.94558 11.0651L5.94946 11.0593L5.91051 11.0495L5.87157 11.0398L5.83263 11.0301L5.79369 11.0204L5.75475 11.0106C5.72879 11.0042 5.68337 10.9912 5.61845 10.9718C5.55355 10.9523 5.37831 10.881 5.09273 10.7579C4.80717 10.6347 4.58 10.5148 4.41125 10.3982C4.24207 10.2812 4.08077 10.1532 3.92837 10.0151C3.77649 9.87511 3.6097 9.69492 3.42796 9.47456C3.24624 9.2542 3.08399 8.99818 2.94119 8.70652C2.79841 8.41486 2.69131 8.13617 2.61991 7.87043C2.5488 7.60625 2.50188 7.33616 2.47974 7.0635L2.44468 6.65517L2.46415 6.65906L2.48362 6.66489L2.50309 6.67461L2.52256 6.68434L2.54203 6.69406L2.5615 6.70378L2.8633 6.83989C3.06452 6.93063 3.31439 7.00841 3.61294 7.07322C3.9115 7.13802 4.08998 7.17368 4.14839 7.18016L4.23601 7.18988H4.41125L4.40737 7.18405L4.40151 7.18016L4.39567 7.17627L4.39178 7.17044L4.3879 7.1646L4.38204 7.16072L4.3762 7.15683L4.37231 7.15099L4.35283 7.14127L4.33336 7.13155L4.32949 7.12572L4.32363 7.12183L4.31779 7.11794L4.31389 7.11211L4.29442 7.10238L4.27495 7.09266L4.27108 7.08683C4.26718 7.08422 4.21136 7.04275 4.10361 6.96239C3.99716 6.88072 3.88553 6.77508 3.7687 6.64545C3.65188 6.51581 3.53505 6.3797 3.41823 6.23712C3.30118 6.09421 3.19694 5.94131 3.10669 5.78018C3.01584 5.61816 2.91977 5.41203 2.81852 5.16186C2.71857 4.91298 2.64264 4.66215 2.59071 4.40938C2.5388 4.1566 2.50959 3.90708 2.50309 3.66078C2.4966 3.41448 2.50309 3.20384 2.52256 3.02884C2.54203 2.85385 2.58097 2.65616 2.63939 2.4358C2.6978 2.21544 2.78219 1.98211 2.89251 1.73581L3.05801 1.36637L3.06775 1.33721L3.07748 1.30804L3.08334 1.30415L3.08722 1.29832L3.09111 1.29249L3.09695 1.2886L3.10281 1.29249L3.10669 1.29832L3.11058 1.30415L3.11643 1.30804L3.12229 1.31193L3.12616 1.31776L3.13005 1.3236L3.1359 1.32749L3.14563 1.34693L3.15537 1.36637L3.16123 1.37026L3.1651 1.3761L3.42796 1.66776C3.6032 1.8622 3.8109 2.07933 4.05103 2.31913C4.29119 2.55894 4.42423 2.68338 4.45019 2.69246C4.47616 2.70283 4.5086 2.73263 4.54754 2.7819C4.58649 2.82987 4.7163 2.94459 4.93696 3.12607C5.15765 3.30754 5.44646 3.51819 5.80342 3.758C6.16041 3.9978 6.55631 4.23438 6.99116 4.46771C7.42602 4.70104 7.89333 4.91167 8.39307 5.09964C8.89283 5.28761 9.24331 5.41075 9.4445 5.46908C9.64572 5.52741 9.98969 5.60194 10.4765 5.69269C10.9632 5.78343 11.33 5.84176 11.5766 5.86768C11.8232 5.8936 11.992 5.90852 12.0828 5.9124L12.2191 5.91629L12.2152 5.88713L12.2094 5.85796L12.1704 5.61491C12.1445 5.45288 12.1315 5.22603 12.1315 4.93437C12.1315 4.6427 12.1542 4.37373 12.1997 4.12744C12.2451 3.88114 12.3132 3.63161 12.4041 3.37884C12.495 3.12607 12.5839 2.92319 12.6708 2.77024C12.7591 2.61857 12.8747 2.44552 13.0174 2.25108C13.1602 2.05664 13.3452 1.85572 13.5724 1.64831C13.7995 1.4409 14.0591 1.25618 14.3512 1.09416C14.6433 0.932129 14.9126 0.80897 15.1592 0.724719C15.4059 0.640468 15.6136 0.585363 15.7823 0.559444C15.9511 0.533525 16.0354 0.518611 16.0354 0.514723Z" fill="#00AF51"/>
</g>
</svg>
