<svg width="26" height="19" viewBox="0 0 26 19" fill="none" xmlns="http://www.w3.org/2000/svg">
<g id="Social Media Icon Square/YouTube">
<g id="Group 73">
<path id="YouTube" d="M13.6848 17.6438L8.81166 17.5527C7.23385 17.521 5.65211 17.5844 4.10524 17.2556C1.75209 16.7643 1.58538 14.3556 1.41094 12.3351C1.17058 9.49455 1.26363 6.60246 1.71722 3.78564C1.97329 2.2051 2.98102 1.26199 4.53944 1.15936C9.80023 0.786906 15.096 0.831046 20.3452 1.00481C20.8995 1.02074 21.4577 1.1078 22.0044 1.20691C24.7027 1.69026 24.7685 4.41989 24.9434 6.71773C25.1179 9.03928 25.0442 11.3728 24.7108 13.6785C24.4433 15.5876 23.9315 17.1885 21.7717 17.3431C19.0657 17.5452 16.4217 17.7079 13.708 17.6561C13.7081 17.6438 13.6925 17.6438 13.6848 17.6438ZM10.8199 12.8105C12.8591 11.614 14.8595 10.4374 16.8871 9.24892C14.844 8.05239 12.8475 6.87581 10.8199 5.68731V12.8105Z" fill="#00AF51"/>
</g>
</g>
</svg>
