<svg width="65" height="64" viewBox="0 0 65 64" fill="none" xmlns="http://www.w3.org/2000/svg">
<g id="HandHeart" clip-path="url(#clip0_649_3971)">
<path id="Vector" d="M57.8826 34.9895C57.2337 34.4894 56.4898 34.1266 55.6962 33.9232C54.9026 33.7198 54.0759 33.68 53.2665 33.8063C57.9248 29.1033 60.2812 24.4276 60.2812 19.8437C60.2812 13.2779 55.0003 7.93749 48.5089 7.93749C46.7865 7.92667 45.0826 8.293 43.5168 9.01076C41.9511 9.72851 40.5614 10.7803 39.4453 12.0923C38.3293 10.7803 36.9396 9.72851 35.3738 9.01076C33.808 8.293 32.1041 7.92667 30.3817 7.93749C23.8903 7.93749 18.6094 13.2779 18.6094 19.8437C18.6094 22.5723 19.413 25.2239 21.1047 28.0293C19.7192 28.3803 18.4548 29.1004 17.446 30.1129L11.8352 35.7187H4.71875C3.66617 35.7187 2.6567 36.1369 1.91242 36.8812C1.16813 37.6254 0.75 38.6349 0.75 39.6875L0.75 49.6094C0.75 50.6619 1.16813 51.6714 1.91242 52.4157C2.6567 53.16 3.66617 53.5781 4.71875 53.5781H30.5156C30.6779 53.5782 30.8395 53.5582 30.9968 53.5186L46.8718 49.5498C46.973 49.5257 47.0718 49.4925 47.167 49.4506L56.8086 45.3479L56.9177 45.2983C57.8444 44.8353 58.6379 44.144 59.2235 43.2895C59.8091 42.4351 60.1675 41.4456 60.2651 40.4143C60.3626 39.3831 60.1959 38.3439 59.7809 37.3949C59.3658 36.4458 58.716 35.618 57.8926 34.9895H57.8826ZM30.3817 11.9062C31.9186 11.8837 33.4273 12.3202 34.7149 13.1597C36.0025 13.9992 37.0104 15.2037 37.6098 16.6191C37.7593 16.9831 38.0136 17.2944 38.3404 17.5135C38.6673 17.7325 39.0518 17.8495 39.4453 17.8495C39.8388 17.8495 40.2234 17.7325 40.5502 17.5135C40.877 17.2944 41.1314 16.9831 41.2809 16.6191C41.8802 15.2037 42.8881 13.9992 44.1757 13.1597C45.4633 12.3202 46.972 11.8837 48.5089 11.9062C52.7381 11.9062 56.3125 15.5401 56.3125 19.8437C56.3125 24.6831 52.3958 30.1575 44.9867 35.6939L42.2358 36.3265C42.4773 35.3065 42.4847 34.2451 42.2576 33.2218C42.0306 32.1985 41.5748 31.2399 40.9245 30.4178C40.2743 29.5957 39.4463 28.9315 38.5028 28.4749C37.5593 28.0183 36.5247 27.7811 35.4766 27.7812H25.7234C23.5827 24.894 22.5781 22.354 22.5781 19.8437C22.5781 15.5401 26.1525 11.9062 30.3817 11.9062ZM4.71875 39.6875H10.6719V49.6094H4.71875V39.6875ZM55.1789 41.724L45.7531 45.7374L30.2676 49.6094H14.6406V38.5242L20.2539 32.9133C20.6211 32.5432 21.0582 32.2497 21.5398 32.05C22.0215 31.8503 22.538 31.7483 23.0593 31.75H35.4766C36.266 31.75 37.0231 32.0636 37.5813 32.6218C38.1395 33.18 38.4531 33.9371 38.4531 34.7266C38.4531 35.516 38.1395 36.2731 37.5813 36.8313C37.0231 37.3895 36.266 37.7031 35.4766 37.7031H28.5312C28.005 37.7031 27.5002 37.9122 27.1281 38.2843C26.7559 38.6565 26.5469 39.1612 26.5469 39.6875C26.5469 40.2138 26.7559 40.7185 27.1281 41.0907C27.5002 41.4628 28.005 41.6719 28.5312 41.6719H36.4687C36.6181 41.6714 36.767 41.6548 36.9128 41.6223L53.5319 37.7999L53.6088 37.78C54.1161 37.6392 54.6576 37.6909 55.1291 37.9253C55.6005 38.1597 55.9687 38.5602 56.1626 39.0497C56.3566 39.5392 56.3626 40.0831 56.1797 40.5768C55.9967 41.0705 55.6376 41.4791 55.1715 41.724H55.1789Z" fill="#00AF51"/>
</g>
<defs>
<clipPath id="clip0_649_3971">
<rect width="63.5" height="63.5" fill="white" transform="translate(0.75)"/>
</clipPath>
</defs>
</svg>
