<svg width="56" height="55" viewBox="0 0 56 55" fill="none" xmlns="http://www.w3.org/2000/svg">
<g id="Heart">
<path id="Vector" d="M38.7422 6.875C34.3057 6.875 30.4213 8.78281 28 12.0076C25.5787 8.78281 21.6943 6.875 17.2578 6.875C13.7263 6.87898 10.3405 8.28365 7.84333 10.7808C5.34615 13.278 3.94148 16.6638 3.9375 20.1953C3.9375 35.2344 26.2361 47.4074 27.1857 47.9102C27.436 48.0448 27.7158 48.1153 28 48.1153C28.2842 48.1153 28.564 48.0448 28.8143 47.9102C29.7639 47.4074 52.0625 35.2344 52.0625 20.1953C52.0585 16.6638 50.6539 13.278 48.1567 10.7808C45.6595 8.28365 42.2737 6.87898 38.7422 6.875ZM28 44.4297C24.077 42.1437 7.375 31.7303 7.375 20.1953C7.37841 17.5753 8.42073 15.0635 10.2734 13.2109C12.126 11.3582 14.6378 10.3159 17.2578 10.3125C21.4365 10.3125 24.9449 12.5383 26.4102 16.1133C26.5396 16.4285 26.7599 16.6981 27.043 16.8879C27.3261 17.0777 27.6592 17.179 28 17.179C28.3408 17.179 28.6739 17.0777 28.957 16.8879C29.2401 16.6981 29.4604 16.4285 29.5898 16.1133C31.0551 12.5318 34.5635 10.3125 38.7422 10.3125C41.3622 10.3159 43.874 11.3582 45.7266 13.2109C47.5793 15.0635 48.6216 17.5753 48.625 20.1953C48.625 31.7131 31.9188 42.1416 28 44.4297Z" fill="#00AF51"/>
</g>
</svg>
