<svg width="57" height="56" viewBox="0 0 57 56" fill="none" xmlns="http://www.w3.org/2000/svg">
<g id="Handshake" clip-path="url(#clip0_649_3967)">
<path id="Vector" d="M26.531 47.6744C26.4364 48.053 26.2179 48.3891 25.9104 48.6293C25.6028 48.8694 25.2238 48.9999 24.8335 49C24.6861 49.0007 24.5391 48.9831 24.396 48.9475L17.396 47.1975C17.2011 47.1486 17.0161 47.0664 16.8491 46.9547L11.5992 43.4547C11.2131 43.1971 10.9451 42.7967 10.8542 42.3415C10.7634 41.8864 10.857 41.4137 11.1146 41.0277C11.3722 40.6416 11.7726 40.3736 12.2278 40.2827C12.6829 40.1919 13.1556 40.2855 13.5417 40.5431L18.5379 43.8747L25.2448 45.5525C25.4689 45.6068 25.68 45.7049 25.8661 45.8411C26.0521 45.9773 26.2094 46.1489 26.329 46.3461C26.4485 46.5432 26.5279 46.7621 26.5626 46.9901C26.5972 47.218 26.5865 47.4506 26.531 47.6744ZM55.557 26.5737C55.4134 27.0099 55.1848 27.4133 54.8844 27.7606C54.5841 28.1079 54.2178 28.3922 53.807 28.5972L48.627 31.1872L36.5782 43.2381C36.3644 43.4518 36.0988 43.6063 35.8075 43.6869C35.5161 43.7674 35.2089 43.771 34.9157 43.6975L20.9157 40.1975C20.7028 40.144 20.5018 40.0513 20.3229 39.9241L8.1779 31.2528L2.86665 28.5972C2.03657 28.1822 1.40527 27.4546 1.11156 26.5743C0.817851 25.694 0.885776 24.7331 1.3004 23.9028L6.73634 13.0331C7.15129 12.203 7.87892 11.5717 8.75924 11.278C9.63955 10.9843 10.6005 11.0522 11.4307 11.4669L16.2563 13.8731L27.8501 10.5612C28.1646 10.4713 28.4981 10.4713 28.8126 10.5612L40.4063 13.8731L45.232 11.4669C46.0622 11.0522 47.0231 10.9843 47.9034 11.278C48.7837 11.5717 49.5114 12.203 49.9263 13.0331L55.3623 23.9028C55.5696 24.3131 55.6936 24.7603 55.727 25.2188C55.7604 25.6772 55.7026 26.1378 55.557 26.5737ZM45.4551 29.4044L39.5029 17.5H32.5423L23.0835 26.6875C25.8529 28.4572 30.1951 28.945 34.091 25.0184C34.3953 24.7117 34.8022 24.5284 35.2336 24.5038C35.6649 24.4792 36.0901 24.6149 36.4273 24.885L43.9545 30.9159L45.4551 29.4044ZM4.43071 25.4669L8.3004 27.4028L13.7363 16.5331L9.86665 14.5972L4.43071 25.4669ZM41.4585 33.3944L35.397 28.5403C31.1226 32.0403 25.6954 32.5019 21.1979 29.6341C20.7555 29.3526 20.382 28.9754 20.1049 28.5303C19.8279 28.0851 19.6544 27.5834 19.5973 27.0622C19.5401 26.541 19.6009 26.0136 19.7749 25.519C19.949 25.0244 20.2319 24.5752 20.6029 24.2047C20.6082 24.1983 20.614 24.1925 20.6204 24.1872L30.4335 14.6694L28.3335 14.07L17.3041 17.2222L11.317 29.1944L22.0795 36.8834L34.7976 40.0619L41.4585 33.3944ZM52.2298 25.4669L46.8004 14.5972L42.9307 16.5331L48.3666 27.4028L52.2298 25.4669Z" fill="#00AF51"/>
</g>
<defs>
<clipPath id="clip0_649_3967">
<rect width="56" height="56" fill="white" transform="translate(0.333984)"/>
</clipPath>
</defs>
</svg>
