<svg width="58" height="58" viewBox="0 0 58 58" fill="none" xmlns="http://www.w3.org/2000/svg">
<g id="UserFocus">
<path id="Vector" d="M50.1667 10.7499V17.0207C50.1667 17.4959 49.978 17.9516 49.642 18.2876C49.306 18.6236 48.8503 18.8124 48.3751 18.8124C47.8999 18.8124 47.4442 18.6236 47.1082 18.2876C46.7722 17.9516 46.5834 17.4959 46.5834 17.0207V10.7499H40.3126C39.8375 10.7499 39.3817 10.5612 39.0457 10.2252C38.7097 9.88917 38.521 9.43346 38.521 8.95828C38.521 8.48311 38.7097 8.02739 39.0457 7.69139C39.3817 7.35539 39.8375 7.16663 40.3126 7.16663H46.5834C47.5338 7.16663 48.4452 7.54415 49.1172 8.21615C49.7892 8.88816 50.1667 9.79959 50.1667 10.7499ZM48.3751 38.5206C47.8999 38.5206 47.4442 38.7094 47.1082 39.0454C46.7722 39.3814 46.5834 39.8371 46.5834 40.3123V46.5831H40.3126C39.8375 46.5831 39.3817 46.7718 39.0457 47.1078C38.7097 47.4438 38.521 47.8995 38.521 48.3747C38.521 48.8499 38.7097 49.3056 39.0457 49.6416C39.3817 49.9776 39.8375 50.1664 40.3126 50.1664H46.5834C47.5338 50.1664 48.4452 49.7889 49.1172 49.1169C49.7892 48.4449 50.1667 47.5334 50.1667 46.5831V40.3123C50.1667 39.8371 49.978 39.3814 49.642 39.0454C49.306 38.7094 48.8503 38.5206 48.3751 38.5206ZM17.0211 46.5831H10.7503V40.3123C10.7503 39.8371 10.5615 39.3814 10.2255 39.0454C9.88954 38.7094 9.43383 38.5206 8.95865 38.5206C8.48347 38.5206 8.02776 38.7094 7.69176 39.0454C7.35576 39.3814 7.16699 39.8371 7.16699 40.3123V46.5831C7.16699 47.5334 7.54452 48.4449 8.21652 49.1169C8.88852 49.7889 9.79995 50.1664 10.7503 50.1664H17.0211C17.4963 50.1664 17.952 49.9776 18.288 49.6416C18.624 49.3056 18.8128 48.8499 18.8128 48.3747C18.8128 47.8995 18.624 47.4438 18.288 47.1078C17.952 46.7718 17.4963 46.5831 17.0211 46.5831ZM8.95865 18.8124C9.43383 18.8124 9.88954 18.6236 10.2255 18.2876C10.5615 17.9516 10.7503 17.4959 10.7503 17.0207V10.7499H17.0211C17.4963 10.7499 17.952 10.5612 18.288 10.2252C18.624 9.88917 18.8128 9.43346 18.8128 8.95828C18.8128 8.48311 18.624 8.02739 18.288 7.69139C17.952 7.35539 17.4963 7.16663 17.0211 7.16663H10.7503C9.79995 7.16663 8.88852 7.54415 8.21652 8.21615C7.54452 8.88816 7.16699 9.79959 7.16699 10.7499V17.0207C7.16699 17.4959 7.35576 17.9516 7.69176 18.2876C8.02776 18.6236 8.48347 18.8124 8.95865 18.8124ZM39.4168 39.4164C39.1385 39.4171 38.8638 39.3528 38.6146 39.2288C38.3655 39.1048 38.1486 38.9244 37.9812 38.702C36.8965 37.2557 35.4899 36.0817 33.8728 35.2732C32.2557 34.4647 30.4726 34.0437 28.6646 34.0437C26.8567 34.0437 25.0736 34.4647 23.4565 35.2732C21.8394 36.0817 20.4328 37.2557 19.348 38.702C19.0623 39.0822 18.6373 39.3332 18.1665 39.4C17.6957 39.4668 17.2176 39.3438 16.8375 39.0581C16.4573 38.7724 16.2062 38.3474 16.1395 37.8766C16.0727 37.4058 16.1957 36.9277 16.4814 36.5476C18.0692 34.4215 20.1854 32.7477 22.62 31.6922C21.2859 30.4741 20.3513 28.8813 19.9387 27.1225C19.5261 25.3638 19.6548 23.5214 20.308 21.8372C20.9612 20.153 22.1084 18.7056 23.5989 17.6849C25.0894 16.6643 26.8537 16.1182 28.6602 16.1182C30.4666 16.1182 32.2309 16.6643 33.7214 17.6849C35.2119 18.7056 36.3591 20.153 37.0123 21.8372C37.6655 23.5214 37.7942 25.3638 37.3816 27.1225C36.969 28.8813 36.0344 30.4741 34.7003 31.6922C37.1365 32.747 39.2543 34.4209 40.8434 36.5476C41.0434 36.8133 41.1654 37.1294 41.1959 37.4605C41.2264 37.7917 41.1641 38.1248 41.016 38.4225C40.868 38.7203 40.64 38.971 40.3575 39.1465C40.0751 39.322 39.7494 39.4155 39.4168 39.4164ZM28.6669 30.4582C29.7299 30.4582 30.7691 30.1429 31.653 29.5523C32.537 28.9617 33.2259 28.1222 33.6327 27.1401C34.0395 26.158 34.146 25.0772 33.9386 24.0346C33.7312 22.9919 33.2193 22.0342 32.4675 21.2825C31.7158 20.5308 30.7581 20.0189 29.7155 19.8115C28.6728 19.6041 27.5921 19.7105 26.61 20.1174C25.6278 20.5242 24.7884 21.2131 24.1977 22.097C23.6071 22.9809 23.2919 24.0201 23.2919 25.0832C23.2919 26.5087 23.8582 27.8759 24.8662 28.8839C25.8742 29.8919 27.2413 30.4582 28.6669 30.4582Z" fill="#00AF51"/>
</g>
</svg>
