<svg width="319" height="289" viewBox="0 0 319 289" fill="none" xmlns="http://www.w3.org/2000/svg">
<path d="M163.785 288.538C243.835 288.538 308.729 277.012 308.729 262.793C308.729 248.575 243.835 237.049 163.785 237.049C83.7352 237.049 18.8418 248.575 18.8418 262.793C18.8418 277.012 83.7352 288.538 163.785 288.538Z" fill="#92E3A9"/>
<path opacity="0.5" d="M163.785 288.538C243.835 288.538 308.729 277.012 308.729 262.793C308.729 248.575 243.835 237.049 163.785 237.049C83.7352 237.049 18.8418 248.575 18.8418 262.793C18.8418 277.012 83.7352 288.538 163.785 288.538Z" fill="white"/>
<path d="M305.921 129.678C305.921 129.678 305.921 126.524 301.505 122.101C297.089 117.677 294.243 115.161 294.243 115.161C294.243 115.161 292.035 122.416 296.136 126.839C299.148 129.944 302.414 132.793 305.899 135.356L305.921 129.678Z" fill="#92E3A9"/>
<path d="M299.508 149.385C299.508 149.385 299.508 146.23 295.092 141.815C290.677 137.399 287.838 134.868 287.838 134.868C287.838 134.868 285.585 142.13 289.73 146.546C292.741 149.652 296.007 152.501 299.493 155.062L299.508 149.385Z" fill="#92E3A9"/>
<path d="M305.643 135.055C305.643 135.055 305.973 131.916 310.84 127.989C315.706 124.061 318.785 121.853 318.785 121.853C318.785 121.853 320.22 129.303 315.669 133.261C312.339 136.03 308.785 138.517 305.042 140.695L305.643 135.055Z" fill="#92E3A9"/>
<path d="M297.9 158.329C297.9 158.329 298.561 155.242 303.803 151.848C309.045 148.453 312.357 146.591 312.357 146.591C312.357 146.591 312.995 154.153 308.061 157.616C304.456 160.019 300.658 162.119 296.706 163.894L297.9 158.329Z" fill="#92E3A9"/>
<path d="M299.356 183.705C299.356 183.705 299.356 180.544 303.772 176.128C308.188 171.712 311.027 169.188 311.027 169.188C311.027 169.188 313.235 176.443 309.134 180.859C306.125 183.969 302.859 186.82 299.371 189.383L299.356 183.705Z" fill="#92E3A9"/>
<path d="M299.282 189.894C299.282 189.894 299.725 186.769 295.985 181.768C292.245 176.766 289.79 173.867 289.79 173.867C289.79 173.867 286.568 180.739 290 185.696C292.544 189.201 295.378 192.487 298.471 195.519L299.282 189.894Z" fill="#92E3A9"/>
<path d="M294.927 208.286C294.927 208.286 294.927 205.131 299.343 200.716C303.759 196.3 306.597 193.776 306.597 193.776C306.597 193.776 308.813 201.031 304.705 205.447C301.695 208.557 298.429 211.408 294.942 213.971L294.927 208.286Z" fill="#92E3A9"/>
<path d="M297.855 224.898C297.855 224.898 297.052 221.841 300.206 216.449C303.36 211.057 305.463 207.895 305.463 207.895C305.463 207.895 309.436 214.354 306.589 219.671C304.455 223.44 302.011 227.024 299.282 230.388L297.855 224.898Z" fill="#92E3A9"/>
<path d="M306.319 128.867C306.098 132.154 305.695 135.426 305.11 138.668C303.368 147.68 298.997 153.508 297.255 161.663C295.512 169.819 300.521 180.311 299.177 190.78C297.833 201.249 293.762 207.069 294.927 214.061C296.091 221.053 302.339 240.646 302.339 240.646" stroke="#263238" stroke-width="0.75" stroke-linecap="round" stroke-linejoin="round"/>
<path d="M305.599 137.151L310.36 133.493" stroke="#263238" stroke-width="0.75" stroke-linecap="round" stroke-linejoin="round"/>
<path d="M305.823 132.945L303.825 129.4" stroke="#263238" stroke-width="0.75" stroke-linecap="round" stroke-linejoin="round"/>
<path d="M297.517 161.288C297.517 161.288 301.504 158.284 305.597 155.28" stroke="#263238" stroke-width="0.75" stroke-linecap="round" stroke-linejoin="round"/>
<path d="M299.297 154.506C297.355 150.861 295.053 147.42 292.426 144.233" stroke="#263238" stroke-width="0.75" stroke-linecap="round" stroke-linejoin="round"/>
<path d="M299.508 188.189C301.784 183.995 304.658 180.155 308.039 176.789" stroke="#263238" stroke-width="0.75" stroke-linecap="round" stroke-linejoin="round"/>
<path d="M298.734 192.62C297.525 189.773 296.081 187.032 294.415 184.426C292.095 180.994 291.757 180.551 291.757 180.551" stroke="#263238" stroke-width="0.75" stroke-linecap="round" stroke-linejoin="round"/>
<path d="M294.927 214.053C295.935 211.544 297.135 209.116 298.517 206.791C299.896 204.637 301.451 202.6 303.165 200.701" stroke="#263238" stroke-width="0.75" stroke-linecap="round" stroke-linejoin="round"/>
<path d="M299.312 230.388C299.082 227.995 299.494 225.584 300.506 223.403C302.166 220.189 304.051 215.983 304.824 214.324" stroke="#263238" stroke-width="0.75" stroke-linecap="round" stroke-linejoin="round"/>
<path d="M276.992 171.832C276.992 171.832 276.647 169.857 278.937 166.575C281.228 163.293 282.737 161.431 282.737 161.431C282.737 161.431 284.908 165.749 282.82 168.941C281.263 171.217 279.52 173.36 277.608 175.347L276.992 171.832Z" fill="#92E3A9"/>
<path d="M283.151 183.503C283.151 183.503 282.813 181.527 285.104 178.246C287.394 174.964 288.896 173.101 288.896 173.101C288.896 173.101 291.074 177.412 288.979 180.611C287.423 182.886 285.68 185.026 283.767 187.01L283.151 183.503Z" fill="#92E3A9"/>
<path d="M277.75 175.174C277.75 175.174 277.202 173.244 273.725 171.306C270.247 169.369 268.07 168.302 268.07 168.302C268.07 168.302 267.987 173.131 271.269 175.114C273.657 176.493 276.156 177.668 278.741 178.629L277.75 175.174Z" fill="#92E3A9"/>
<path d="M285.133 188.925C285.133 188.925 284.382 187.062 280.725 185.508C277.068 183.953 274.792 183.135 274.792 183.135C274.792 183.135 275.213 187.941 278.682 189.578C281.204 190.695 283.814 191.599 286.485 192.282L285.133 188.925Z" fill="#92E3A9"/>
<path d="M286.973 204.996C286.973 204.996 286.635 203.021 283.383 200.731C280.132 198.44 278.074 197.163 278.074 197.163C278.074 197.163 277.481 201.955 280.53 204.283C282.761 205.901 285.122 207.333 287.589 208.563L286.973 204.996Z" fill="#92E3A9"/>
<path d="M287.694 208.871C287.694 208.871 287.07 206.964 288.88 203.419C290.69 199.874 291.884 197.794 291.884 197.794C291.884 197.794 294.648 201.752 293.033 205.229C291.819 207.704 290.4 210.073 288.79 212.311L287.694 208.871Z" fill="#92E3A9"/>
<path d="M293.236 224.808C293.236 224.808 293.469 222.81 296.578 220.302C299.687 217.793 301.67 216.442 301.67 216.442C301.67 216.442 302.541 221.188 299.627 223.681C297.495 225.43 295.219 226.995 292.823 228.36L293.236 224.808Z" fill="#92E3A9"/>
<path d="M292.418 219.911C292.418 219.911 292.072 217.936 288.828 215.646C285.584 213.355 283.518 212.078 283.518 212.078C283.518 212.078 282.925 216.87 285.974 219.19C288.203 220.815 290.564 222.249 293.033 223.478L292.418 219.911Z" fill="#92E3A9"/>
<path d="M292.373 230.673C292.373 230.673 292.545 228.668 289.977 225.626C287.409 222.585 285.749 220.835 285.749 220.835C285.749 220.835 283.961 225.341 286.327 228.345C288.072 230.478 289.994 232.46 292.072 234.27L292.373 230.673Z" fill="#92E3A9"/>
<path d="M276.654 171.374C277.153 173.408 277.759 175.413 278.472 177.382C280.552 182.849 283.916 186.026 285.899 190.953C287.882 195.879 285.899 202.969 287.852 209.42C289.804 215.871 293.019 219.04 293.049 223.546C293.079 228.052 291.299 240.579 291.299 240.579" stroke="#263238" stroke-width="0.75" stroke-linecap="round" stroke-linejoin="round"/>
<path d="M278.006 176.488L274.619 174.708" stroke="#263238" stroke-width="0.75" stroke-linecap="round" stroke-linejoin="round"/>
<path d="M277.405 173.867L278.276 171.434" stroke="#263238" stroke-width="0.75" stroke-linecap="round" stroke-linejoin="round"/>
<path d="M285.696 190.742C285.696 190.742 282.865 189.3 279.974 187.873" stroke="#263238" stroke-width="0.75" stroke-linecap="round" stroke-linejoin="round"/>
<path d="M283.743 186.439C284.644 184.038 285.744 181.717 287.033 179.5" stroke="#263238" stroke-width="0.75" stroke-linecap="round" stroke-linejoin="round"/>
<path d="M287.341 207.828C285.457 205.446 283.239 203.349 280.755 201.602" stroke="#263238" stroke-width="0.75" stroke-linecap="round" stroke-linejoin="round"/>
<path d="M288.332 210.539C288.78 208.621 289.388 206.745 290.149 204.929C291.231 202.525 291.396 202.218 291.396 202.218" stroke="#263238" stroke-width="0.75" stroke-linecap="round" stroke-linejoin="round"/>
<path d="M292.891 226.971C293.992 225.614 295.211 224.358 296.533 223.216C297.373 222.594 298.161 221.906 298.891 221.158" stroke="#263238" stroke-width="0.75" stroke-linecap="round" stroke-linejoin="round"/>
<path d="M293.049 223.546C292.143 222.083 291.126 220.692 290.007 219.386C288.908 218.186 287.712 217.078 286.433 216.074" stroke="#263238" stroke-width="0.75" stroke-linecap="round" stroke-linejoin="round"/>
<path d="M292.072 234.27C291.957 232.745 291.439 231.278 290.57 230.02C289.181 228.187 287.566 225.754 286.875 224.763" stroke="#263238" stroke-width="0.75" stroke-linecap="round" stroke-linejoin="round"/>
<path d="M285.719 238.957H307.265V250.094C307.265 250.59 307.068 251.066 306.717 251.416C306.367 251.767 305.891 251.964 305.395 251.964H287.589C287.093 251.964 286.617 251.767 286.266 251.416C285.916 251.066 285.719 250.59 285.719 250.094V238.957Z" fill="#263238" stroke="#263238" stroke-linecap="round" stroke-linejoin="round"/>
<path d="M32.1808 144.571C32.1808 144.571 32.1808 141.882 28.4258 138.127C24.6708 134.372 22.2375 132.224 22.2375 132.224C22.2375 132.224 20.36 138.397 23.8447 142.152C26.4128 144.795 29.1961 147.219 32.1658 149.4L32.1808 144.571Z" fill="#92E3A9"/>
<path d="M26.7433 161.325C26.7433 161.325 26.7433 158.644 22.9883 154.889C19.2333 151.134 16.8 148.956 16.8 148.956C16.8 148.956 14.9225 155.122 18.4072 158.885C20.9778 161.537 23.7663 163.968 26.7433 166.154V161.325Z" fill="#92E3A9"/>
<path d="M31.9481 149.137C31.9481 149.137 32.226 146.471 36.364 143.129C40.502 139.787 43.123 137.917 43.123 137.917C43.123 137.917 44.3396 144.248 40.472 147.62C37.6484 149.974 34.634 152.089 31.46 153.943L31.9481 149.137Z" fill="#92E3A9"/>
<path d="M25.3615 168.933C25.3615 168.933 25.9248 166.305 30.3782 163.421C34.8316 160.537 37.6554 158.915 37.6554 158.915C37.6554 158.915 38.1961 165.336 33.998 168.28C30.9357 170.328 27.7077 172.116 24.3477 173.627L25.3615 168.933Z" fill="#92E3A9"/>
<path d="M26.6007 190.509C26.6007 190.509 26.6007 187.828 30.3557 184.066C34.1107 180.303 36.5064 178.163 36.5064 178.163C36.5064 178.163 38.3839 184.336 34.8917 188.091C32.3295 190.737 29.5484 193.161 26.5781 195.338L26.6007 190.509Z" fill="#92E3A9"/>
<path d="M26.533 195.774C26.533 195.774 26.916 193.123 23.7318 188.865C20.5475 184.607 18.4748 182.143 18.4748 182.143C18.4748 182.143 15.7411 187.986 18.655 192.207C20.821 195.187 23.2326 197.98 25.8646 200.558L26.533 195.774Z" fill="#92E3A9"/>
<path d="M22.8308 211.387C22.8308 211.387 22.8308 208.706 26.5858 204.944C30.3408 201.181 32.7515 199.041 32.7515 199.041C32.7515 199.041 34.629 205.214 31.1443 208.969C28.5762 211.611 25.7929 214.035 22.8232 216.216L22.8308 211.387Z" fill="#92E3A9"/>
<path d="M25.3393 225.559C25.3393 225.559 24.6559 222.968 27.3445 218.379C30.0331 213.791 31.8505 211.102 31.8505 211.102C31.8505 211.102 35.2 216.547 32.7517 221.098C30.9378 224.301 28.8603 227.348 26.541 230.207L25.3393 225.559Z" fill="#92E3A9"/>
<path d="M32.5182 143.88C32.3312 146.675 31.9877 149.458 31.4893 152.216C29.9873 159.884 26.2924 164.833 24.8129 171.742C23.3334 178.651 27.5916 187.603 26.4501 196.525C25.3086 205.447 21.8389 210.373 22.8303 216.314C23.8216 222.254 29.1387 238.927 29.1387 238.927" stroke="#263238" stroke-width="0.75" stroke-linecap="round" stroke-linejoin="round"/>
<path d="M31.9102 150.924L35.9581 147.815" stroke="#263238" stroke-width="0.75" stroke-linecap="round" stroke-linejoin="round"/>
<path d="M32.0977 147.342L30.4004 144.33" stroke="#263238" stroke-width="0.75" stroke-linecap="round" stroke-linejoin="round"/>
<path d="M25.0381 171.487C25.0381 171.487 28.4251 168.941 31.9098 166.402" stroke="#263238" stroke-width="0.75" stroke-linecap="round" stroke-linejoin="round"/>
<path d="M26.5481 165.681C24.9059 162.584 22.9587 159.658 20.7354 156.947" stroke="#263238" stroke-width="0.75" stroke-linecap="round" stroke-linejoin="round"/>
<path d="M26.7432 194.325C28.6794 190.759 31.1231 187.493 33.9978 184.629" stroke="#263238" stroke-width="0.75" stroke-linecap="round" stroke-linejoin="round"/>
<path d="M26.0683 198.095C25.0422 195.674 23.8163 193.343 22.4034 191.125C20.4208 188.204 20.1504 187.828 20.1504 187.828" stroke="#263238" stroke-width="0.75" stroke-linecap="round" stroke-linejoin="round"/>
<path d="M22.8311 216.314C23.6907 214.182 24.7099 212.119 25.8801 210.141C27.0558 208.311 28.3795 206.58 29.8379 204.966" stroke="#263238" stroke-width="0.75" stroke-linecap="round" stroke-linejoin="round"/>
<path d="M26.563 230.207C26.3664 228.172 26.7164 226.122 27.5769 224.267C28.9887 221.533 30.5809 217.959 31.2493 216.547" stroke="#263238" stroke-width="0.75" stroke-linecap="round" stroke-linejoin="round"/>
<path d="M7.57816 180.416C7.57816 180.416 7.29278 178.734 9.23788 175.97C11.183 173.206 12.4672 171.599 12.4672 171.599C12.4672 171.599 14.3147 175.264 12.5348 177.998C11.2124 179.933 9.73025 181.755 8.10387 183.443L7.57816 180.416Z" fill="#92E3A9"/>
<path d="M12.8193 190.337C12.8193 190.337 12.5264 188.654 14.479 185.891C16.4316 183.127 17.7083 181.512 17.7083 181.512C17.7083 181.512 19.5558 185.185 17.7759 187.918C16.4536 189.854 14.9714 191.675 13.345 193.363L12.8193 190.337Z" fill="#92E3A9"/>
<path d="M8.22367 183.255C8.22367 183.255 7.75805 181.618 4.80661 179.973C1.85517 178.328 0.00019649 177.435 0.00019649 177.435C0.00019649 177.435 -0.0749034 181.535 2.71131 183.232C4.74193 184.409 6.86712 185.413 9.06479 186.236L8.22367 183.255Z" fill="#92E3A9"/>
<path d="M14.5025 194.955C14.5025 194.955 13.8642 193.371 10.7475 192.041C7.63088 190.712 5.71582 190.021 5.71582 190.021C5.71582 190.021 6.0763 194.114 9.02774 195.504C11.1703 196.455 13.3885 197.226 15.6591 197.809L14.5025 194.955Z" fill="#92E3A9"/>
<path d="M16.0726 208.616C16.0726 208.616 15.7797 206.934 13.016 204.989C10.2523 203.044 8.51 201.985 8.51 201.985C8.51 201.985 7.96928 206.033 10.5903 208.008C12.4888 209.386 14.4984 210.604 16.5983 211.65L16.0726 208.616Z" fill="#92E3A9"/>
<path d="M16.6798 211.913C16.6798 211.913 16.1541 210.291 17.6862 207.279C19.2182 204.268 20.2621 202.495 20.2621 202.495C20.2621 202.495 22.6128 205.86 21.2384 208.819C20.2072 210.919 19.0014 212.929 17.6336 214.827L16.6798 211.913Z" fill="#92E3A9"/>
<path d="M21.3959 225.491C21.3959 225.491 21.5912 223.794 24.2422 221.691C26.8933 219.588 28.568 218.409 28.568 218.409C28.568 218.409 29.319 222.442 26.8332 224.567C25.0179 226.058 23.0811 227.395 21.043 228.563L21.3959 225.491Z" fill="#92E3A9"/>
<path d="M20.7351 221.3C20.7351 221.3 20.4422 219.618 17.6785 217.673C14.9148 215.728 13.1725 214.669 13.1725 214.669C13.1725 214.669 12.6618 218.747 15.2603 220.722C17.158 222.102 19.1677 223.32 21.2683 224.365L20.7351 221.3Z" fill="#92E3A9"/>
<path d="M20.6613 230.448C20.6613 230.448 20.804 228.75 18.6261 226.16C16.4482 223.569 15.0288 222.089 15.0288 222.089C15.0288 222.089 13.5268 225.897 15.5169 228.473C17.0035 230.285 18.6389 231.971 20.406 233.512L20.6613 230.448Z" fill="#92E3A9"/>
<path d="M7.29297 180.026C7.7178 181.756 8.23421 183.464 8.84003 185.14C10.6049 189.789 13.4737 192.485 15.156 196.675C16.8382 200.866 15.156 206.919 16.8157 212.379C18.4754 217.838 21.209 220.565 21.2316 224.395C21.2541 228.225 19.7296 238.882 19.7296 238.882" stroke="#263238" stroke-width="0.75" stroke-linecap="round" stroke-linejoin="round"/>
<path d="M8.44177 184.374L5.56543 182.864" stroke="#263238" stroke-width="0.75" stroke-linecap="round" stroke-linejoin="round"/>
<path d="M7.93848 182.151L8.67446 180.078" stroke="#263238" stroke-width="0.75" stroke-linecap="round" stroke-linejoin="round"/>
<path d="M14.9817 196.495C14.9817 196.495 12.5785 195.271 10.1152 194.054" stroke="#263238" stroke-width="0.75" stroke-linecap="round" stroke-linejoin="round"/>
<path d="M13.3223 192.838C14.0916 190.796 15.0285 188.822 16.1235 186.935" stroke="#263238" stroke-width="0.75" stroke-linecap="round" stroke-linejoin="round"/>
<path d="M16.4023 211.027C14.7977 209.014 12.9107 207.243 10.7998 205.77" stroke="#263238" stroke-width="0.75" stroke-linecap="round" stroke-linejoin="round"/>
<path d="M17.2207 213.317C17.6038 211.688 18.1213 210.093 18.7678 208.549C19.6915 206.506 19.8267 206.235 19.8267 206.235" stroke="#263238" stroke-width="0.75" stroke-linecap="round" stroke-linejoin="round"/>
<path d="M21.1035 227.301C22.0376 226.142 23.073 225.069 24.1976 224.094C24.9119 223.566 25.5824 222.981 26.2028 222.344" stroke="#263238" stroke-width="0.75" stroke-linecap="round" stroke-linejoin="round"/>
<path d="M21.231 224.395C20.4623 223.151 19.5986 221.968 18.6476 220.857C17.7253 219.835 16.7206 218.891 15.6436 218.034" stroke="#263238" stroke-width="0.75" stroke-linecap="round" stroke-linejoin="round"/>
<path d="M20.4058 233.512C20.3046 232.213 19.8616 230.964 19.1216 229.892C17.9425 228.337 16.5457 226.265 15.9824 225.454" stroke="#263238" stroke-width="0.75" stroke-linecap="round" stroke-linejoin="round"/>
<path d="M13.8555 238.957H35.4017V250.094C35.4018 250.342 35.3524 250.588 35.2566 250.817C35.1607 251.045 35.0203 251.253 34.8434 251.427C34.6666 251.601 34.4569 251.738 34.2265 251.83C33.9962 251.923 33.7498 251.968 33.5017 251.964H15.7255C15.2295 251.964 14.7539 251.767 14.4032 251.416C14.0525 251.066 13.8555 250.59 13.8555 250.094V238.957Z" fill="#263238" stroke="#263238" stroke-linecap="round" stroke-linejoin="round"/>
<path d="M219.104 99.3903C216.475 102.663 214.691 106.531 213.907 110.655C212.526 117.662 209.124 130.827 209.552 135.393C209.98 139.959 211.054 142.505 215.177 143.249C219.3 143.992 221.65 140.38 222.506 137.301C223.049 135.275 223.473 133.218 223.776 131.143L224.624 114.41C224.624 114.41 223.122 104.354 222.409 102.237C221.695 100.119 219.104 99.3903 219.104 99.3903Z" fill="#92E3A9" stroke="#263238" stroke-linecap="round" stroke-linejoin="round"/>
<path d="M274.333 96.0409C274.333 96.0409 275.835 95.7104 277.262 100.922C278.689 106.134 280.409 113.614 283.225 122.837C286.042 132.059 286.59 135.1 286.372 137.158C286.154 139.216 284.532 141.499 278.862 141.499C273.192 141.499 270.601 139.329 269.099 134.447C267.597 129.566 267.815 114.485 267.71 112.533C267.605 110.58 272.591 95.0646 274.333 96.0409Z" fill="#92E3A9" stroke="#263238" stroke-linecap="round" stroke-linejoin="round"/>
<path d="M235.597 258.032C235.597 258.032 231.909 261.937 229.739 264.438C227.569 266.939 226.81 268.449 230.385 269.966C233.96 271.483 239.502 269.215 241.132 266.714C242.761 264.213 246.231 261.397 246.231 261.397C246.231 261.397 248.071 259.339 245.683 256.41C243.295 253.481 236.678 256.838 235.597 258.032Z" fill="white" stroke="#263238" stroke-linecap="round" stroke-linejoin="round"/>
<path d="M257.729 261.291C257.729 261.291 261.416 261.832 263.369 263.544C265.321 265.257 272.163 269.079 276.714 267.232C281.265 265.384 278.344 262.35 275.851 260.18C274.45 258.938 272.922 257.848 271.292 256.928C271.292 256.928 264.022 256.387 260.778 258.009C257.534 259.632 257.729 261.291 257.729 261.291Z" fill="white" stroke="#263238" stroke-linecap="round" stroke-linejoin="round"/>
<path d="M231.361 210.832C231.361 210.832 233.103 223.854 232.232 227.759C231.361 231.664 228.868 233.947 230.73 237.747C232.109 240.686 233.118 243.783 233.734 246.97C233.952 248.269 232.758 248.592 233.734 249.974C234.446 250.865 235.03 251.85 235.469 252.903C235.469 253.233 234.17 255.073 234.17 255.509C234.17 255.944 234.823 258.655 234.823 258.655C234.823 258.655 238.293 257.904 240.786 258.873C242.592 259.651 244.303 260.634 245.885 261.802C245.885 261.802 248.138 260.931 248.927 259.632C249.352 258.951 249.61 258.179 249.678 257.379C249.783 256.943 250.872 254.66 250.767 252.925C250.662 251.19 249.46 247.503 249.46 245.333C249.46 243.162 251.09 240.774 251.09 237.304C251.09 233.835 249.46 211.59 249.46 211.59L250.962 211.042C250.962 211.042 253.35 224.282 253.35 230.47C253.35 236.658 251.51 244.356 252.704 245.873C253.899 247.39 255.303 248.697 255.303 249.02C255.303 249.343 253.891 251.731 254.221 252.925C254.737 254.494 255.17 256.088 255.521 257.702C255.521 258.355 256.715 260.848 257.691 261.284C258.667 261.719 259.193 260.736 264.961 259.549C270.729 258.362 273.973 258.678 273.425 256.943C272.876 255.208 272.343 252.925 271.69 252.49C271.036 252.054 271.908 251.739 271.69 250.109C271.472 248.479 270.278 246.744 269.196 244.138C268.115 241.532 269.625 238.716 270.06 235.998C270.496 233.279 269.842 229.239 268.761 224.823C267.679 220.407 268.648 209.525 268.648 209.525L269.196 205.297C269.196 205.297 252.592 206.799 242.393 206.701L231.436 206.596C231.436 206.596 230.715 207.362 231.361 210.832Z" fill="#263238" stroke="#263238" stroke-linecap="round" stroke-linejoin="round"/>
<path d="M273.462 165.479C273.462 165.479 274.964 185.23 276.931 195.519C278.064 201.326 278.781 207.206 279.079 213.115H271.186C270.856 213.115 271.727 176.548 271.937 173.312C272.223 170.662 272.733 168.042 273.462 165.479Z" fill="#92E3A9" stroke="#263238" stroke-linecap="round" stroke-linejoin="round"/>
<path d="M240.778 85.1213C240.778 85.1213 231.556 91.302 226.787 93.4724C222.018 95.6428 219.405 98.4666 219.082 99.4805C218.759 100.494 224.286 116.078 224.286 116.078C224.286 116.078 223.963 167.619 223.963 176.3C223.963 184.982 221.252 211.124 221.575 211.124C221.898 211.124 230.587 216.772 242.513 217.095C254.439 217.418 258.284 215.683 262.039 215.683C265.794 215.683 273.304 215.683 273.432 214.602C273.56 213.52 273.65 189.533 273.755 178.358C273.86 167.183 273.973 159.26 273.755 157.42C273.537 155.58 270.503 115.86 270.503 115.86C270.503 115.86 272.756 109.243 274.085 103.926C275.415 98.6093 275.385 97.9559 273.755 95.5753C272.125 93.1946 259.899 86.7059 257.729 85.8723C255.062 84.9388 252.285 84.3557 249.468 84.1375C247.425 83.9948 240.778 85.1213 240.778 85.1213Z" fill="#92E3A9" stroke="#263238" stroke-linecap="round" stroke-linejoin="round"/>
<path d="M220.404 129.243C220.404 129.243 221.816 132.495 223.551 133.906C225.286 135.318 229.303 135.972 230.167 138.142C231.031 140.312 230.167 141.935 229.191 144.541C228.215 147.147 228.763 151.487 225.18 152.051C221.598 152.614 220.517 151.3 217.58 149.227C214.644 147.154 212.811 146.839 211.077 143.692C209.342 140.545 208.824 136.182 210.326 133.824" fill="#92E3A9"/>
<path d="M220.404 129.243C220.404 129.243 221.816 132.495 223.551 133.906C225.286 135.318 229.303 135.972 230.167 138.142C231.031 140.312 230.167 141.935 229.191 144.541C228.215 147.147 228.763 151.487 225.18 152.051C221.598 152.614 220.517 151.3 217.58 149.227C214.644 147.154 212.811 146.839 211.077 143.692C209.342 140.545 208.824 136.182 210.326 133.824" stroke="#263238" stroke-linecap="round" stroke-linejoin="round"/>
<path d="M240.373 80.8481L240.027 89.9653C240.027 89.9653 239.164 91.2645 244.368 91.5875C247.713 91.7629 251.067 91.5105 254.349 90.8365L253.485 80.9683C253.485 80.9683 248.055 83.2213 244.909 82.1624C243.433 81.6072 241.917 81.1678 240.373 80.8481Z" fill="white" stroke="#263238" stroke-linecap="round" stroke-linejoin="round"/>
<path d="M238.308 78.5726C238.308 78.5726 237.557 89.0866 237.009 92.2408C236.46 95.395 236.573 97.3401 237.76 98.0986C238.946 98.8571 245.893 101.576 249.475 101.358C253.057 101.14 258.487 97.8808 258.915 96.9045C259.343 95.9282 255.671 80.6153 255.671 80.6153L255.123 81.2687C255.123 81.2687 256.099 89.2969 255.776 89.5297C255.453 89.7625 242.866 88.8763 240.583 88.7787C238.3 88.6811 238.961 88.5609 238.961 88.5609L238.849 79.3386L238.308 78.5726Z" fill="white" stroke="#263238" stroke-linecap="round" stroke-linejoin="round"/>
<path d="M237.963 91.0843C237.963 91.0843 249.821 92.8341 256.933 91.4598" stroke="#263238" stroke-width="0.5" stroke-miterlimit="10"/>
<path d="M237.467 93.833C237.467 93.833 245.728 97.3252 256.933 94.201" stroke="#263238" stroke-width="0.5" stroke-miterlimit="10"/>
<path d="M238.338 97.0772C238.338 97.0772 246.201 101.32 256.933 96.8219" stroke="#263238" stroke-width="0.5" stroke-miterlimit="10"/>
<path d="M257.519 67.5028C257.789 64.1683 258.015 60.7438 257.189 59.039C255.889 56.3279 251.977 53.1812 246.337 53.399C240.697 53.6167 235.92 55.7871 236.033 62.7264C236.033 62.7264 236.273 64.7917 236.551 67.3225C236.034 68.4277 235.854 69.6604 236.033 70.8673C236.208 72.0253 236.614 73.1362 237.227 74.1341C237.28 74.78 237.317 75.3357 237.332 75.7488C237.437 78.6777 239.39 82.1473 241.132 83.3414C242.875 84.5355 246.119 86.383 248.184 86.383C250.249 86.383 253.929 84.4304 255.694 81.6066C257.061 79.3536 257.196 77.8516 257.196 75.2005H257.301C257.612 73.8082 257.796 72.3905 257.85 70.9649C257.894 69.8013 257.783 68.637 257.519 67.5028Z" fill="white" stroke="#263238" stroke-linecap="round" stroke-linejoin="round"/>
<path d="M237.024 68.1562C237.024 68.1562 237.347 70.8673 237.888 70.7547C238.429 70.642 239.082 66.7443 239.082 66.7443L237.024 68.1562Z" fill="#263238" stroke="#263238" stroke-linecap="round" stroke-linejoin="round"/>
<path d="M255.454 67.8482C255.454 67.8482 255.454 70.8898 256.205 71.3253C256.956 71.7609 257.504 68.7194 257.504 68.7194C256.889 68.2892 256.191 67.9925 255.454 67.8482Z" fill="#263238" stroke="#263238" stroke-linecap="round" stroke-linejoin="round"/>
<path d="M257.187 59.039C255.888 56.3279 251.976 53.1812 246.335 53.399C240.695 53.6167 235.919 55.7871 236.032 62.7264C236.032 62.7264 236.272 64.7917 236.55 67.3225C236.208 68.0563 236.011 68.8495 235.972 69.6582C238.082 67.9684 242.032 65.5502 246.989 65.9858C250.846 66.4253 254.553 67.7322 257.833 69.8084C257.799 69.0318 257.693 68.26 257.518 67.5028C257.788 64.1683 258.051 60.7663 257.187 59.039Z" fill="#92E3A9" stroke="#263238" stroke-linecap="round" stroke-linejoin="round"/>
<path d="M245.578 70.1013L244.925 74.0065C244.925 74.0065 243.731 74.1117 244.174 74.8702C244.617 75.6287 246.885 76.4999 247.974 76.1769C249.063 75.854 250.144 74.765 250.032 74.3295C249.998 74.1992 249.93 74.0802 249.835 73.9851C249.74 73.89 249.621 73.8222 249.491 73.7887L248.079 69.7709" stroke="#263238" stroke-linecap="round" stroke-linejoin="round"/>
<path d="M244.384 78.137C246.467 78.5865 248.63 78.5117 250.677 77.9192" stroke="#263238" stroke-linecap="round" stroke-linejoin="round"/>
<path d="M243.19 69.9435C243.19 70.5143 242.897 70.9724 242.536 70.9724C242.176 70.9724 241.891 70.5143 241.891 69.9435C241.891 69.3728 242.184 68.9147 242.536 68.9147C242.889 68.9147 243.19 69.3503 243.19 69.9435Z" fill="#263238"/>
<path d="M251.435 69.891C251.435 70.4618 251.142 70.9199 250.789 70.9199C250.436 70.9199 250.136 70.4618 250.136 69.891C250.136 69.3202 250.429 68.8621 250.789 68.8621C251.15 68.8621 251.435 69.3503 251.435 69.891Z" fill="#263238"/>
<path d="M240.696 68.374C240.696 68.374 241.447 66.5266 243.843 67.1799" stroke="#263238" stroke-linecap="round" stroke-linejoin="round"/>
<path d="M248.724 67.285C248.724 67.285 250.977 65.6553 252.629 68.4791" stroke="#263238" stroke-linecap="round" stroke-linejoin="round"/>
<path d="M228.215 142.806C228.215 142.806 234.838 144.308 236.356 144C238.344 143.629 240.165 142.641 241.56 141.176C243.52 139.224 245.142 137.594 245.142 139.224C245.149 139.867 245.028 140.505 244.785 141.1C244.543 141.696 244.184 142.238 243.73 142.693C242.979 143.564 241.56 144.541 241.237 145.953C240.914 147.364 241.35 148.446 243.084 149.099C244.819 149.753 250.242 150.721 250.242 152.103C250.242 153.485 249.806 156.774 247.853 157.856C245.901 158.937 241.132 158.179 241.132 158.179C241.132 158.179 245.037 160.349 244.279 160.897C243.52 161.446 241.237 160.68 240.156 159.703C239.074 158.727 238.654 158.614 235.484 156.339C232.315 154.063 229.627 151.345 228.11 150.481C227.287 150.096 226.528 149.59 225.857 148.979C224.985 148.228 224.662 146.726 225.308 144.969C225.528 144.448 225.854 143.979 226.266 143.591C226.677 143.203 227.164 142.905 227.696 142.716L228.215 142.806Z" fill="white" stroke="#263238" stroke-linecap="round" stroke-linejoin="round"/>
<path d="M279.756 130.437C279.756 130.437 271.946 131.939 271.187 132.495C270.429 133.05 271.187 135.318 271.187 135.318C271.187 135.318 264.563 138.465 262.07 140.2C259.577 141.935 261.852 145.412 261.965 145.84C261.965 145.84 263.917 152.246 267.169 154.416C270.421 156.587 273.786 155.821 277.045 152.351C280.304 148.881 282.362 144.09 283.879 142.475C285.396 140.861 287.026 139.329 286.485 135.716C285.944 132.104 283.12 131.698 283.12 131.698" fill="#92E3A9"/>
<path d="M279.756 130.437C279.756 130.437 271.946 131.939 271.187 132.495C270.429 133.05 271.187 135.318 271.187 135.318C271.187 135.318 264.563 138.465 262.07 140.2C259.577 141.935 261.852 145.412 261.965 145.84C261.965 145.84 263.917 152.246 267.169 154.416C270.421 156.587 273.786 155.821 277.045 152.351C280.304 148.881 282.362 144.09 283.879 142.475C285.396 140.861 287.026 139.329 286.485 135.716C285.944 132.104 283.12 131.698 283.12 131.698" stroke="#263238" stroke-linecap="round" stroke-linejoin="round"/>
<path d="M263.804 144.758C263.804 144.758 258.817 146.058 257.405 146.17C255.994 146.283 255.776 146.493 254.912 145.84C254.048 145.186 250.023 142.836 248.153 140.635C246.283 138.435 244.894 138.029 245.112 139.224C245.329 140.418 244.894 141.281 246.2 142.152C247.507 143.024 248.799 145.412 248.799 146.388C248.799 147.364 248.694 147.687 245.983 148.641C243.272 149.595 237.083 150.811 237.722 151.57C238.36 152.329 239.674 152.546 241.086 152.441C242.498 152.336 248.356 151.465 248.784 151.788C248.925 151.932 249.031 152.108 249.093 152.301C249.154 152.493 249.17 152.698 249.139 152.898C249.107 153.098 249.03 153.287 248.912 153.452C248.794 153.616 248.64 153.751 248.461 153.846C247.485 154.499 244.015 154.499 241.95 154.717C239.885 154.934 239.779 155.468 240.651 155.911C242.049 156.433 243.537 156.675 245.029 156.624C246.764 156.624 248.784 156.452 247.92 156.992C247.057 157.533 245.855 157.646 243.685 157.969C241.514 158.291 240.756 157.323 241.086 158.186C241.417 159.05 244.015 159.057 247.267 158.937C250.227 158.786 253.101 157.893 255.626 156.339C257.796 155.032 265.712 153.08 266.26 152.651C266.808 152.223 267.664 149.715 267.123 146.681C266.583 143.647 263.804 144.758 263.804 144.758Z" fill="white" stroke="#263238" stroke-linecap="round" stroke-linejoin="round"/>
<path d="M272.381 132.059C274.495 130.309 276.785 128.784 279.215 127.508" stroke="#263238" stroke-linecap="round" stroke-linejoin="round"/>
<path d="M242.431 152.501C242.431 152.501 248.604 151.795 249.227 151.705C249.851 151.615 250.992 152.321 250.459 153.117C249.926 153.913 249.663 153.733 247.455 154.176C245.263 154.509 243.048 154.657 240.831 154.619" fill="white"/>
<path d="M242.431 152.501C242.431 152.501 248.604 151.795 249.227 151.705C249.851 151.615 250.992 152.321 250.459 153.117C249.926 153.913 249.663 153.733 247.455 154.176C245.263 154.509 243.048 154.657 240.831 154.619" stroke="#263238" stroke-linecap="round" stroke-linejoin="round"/>
<path d="M243.138 156.737C243.138 156.737 250.017 156.294 249.844 156.827C249.672 157.36 249.228 158.059 246.758 158.239C244.287 158.419 241.501 158.592 239.165 157.443" fill="white"/>
<path d="M243.138 156.737C243.138 156.737 250.017 156.294 249.844 156.827C249.672 157.36 249.228 158.059 246.758 158.239C244.287 158.419 241.501 158.592 239.165 157.443" stroke="#263238" stroke-linecap="round" stroke-linejoin="round"/>
<path d="M174.331 252.685C174.331 252.685 175.503 253.849 170.832 256.703C166.16 259.557 162.263 260.856 162.263 262.546C162.263 264.235 167.452 265.918 172.777 264.618C178.101 263.319 180.287 262.936 183.291 262.418C186.295 261.9 187.188 259.301 187.188 255.659C187.188 252.017 179.273 251.153 178.364 250.988C177.455 250.822 174.985 251.258 174.331 252.685Z" fill="white" stroke="#263238" stroke-linecap="round" stroke-linejoin="round"/>
<path d="M186.009 255.666C184.043 258.612 181.637 261.238 178.874 263.454C174.849 266.458 174.331 267.863 176.411 268.644C178.491 269.425 184.454 269.68 188.48 268.126C192.505 266.571 194.45 264.235 195.614 263.191C196.778 262.148 197.432 262.801 197.432 258.648C197.432 254.495 193.016 253.068 189.388 253.331C185.761 253.594 186.009 255.666 186.009 255.666Z" fill="white" stroke="#263238" stroke-linecap="round" stroke-linejoin="round"/>
<path d="M170.186 171.059C170.186 171.059 171.357 194.678 171.748 201.557C172.138 208.436 174.992 234.255 175.503 240.354C176.013 246.452 176.021 248.269 176.021 248.269C176.021 248.269 173.685 249.959 173.685 250.349C173.685 250.74 173.422 254.367 173.422 254.367C175.146 255.316 176.976 256.058 178.875 256.575C180.96 257.045 183.108 257.177 185.236 256.966C185.236 256.966 189.516 258.393 193.151 259.429C196.786 260.465 198.213 259.947 198.213 259.947C198.213 259.947 199.249 254.758 199.505 253.068C199.76 251.378 204.176 233.474 204.176 225.281C204.176 217.087 203.14 213.34 201.585 208.541C200.03 203.742 203.658 186.604 204.957 180.378C205.702 176.905 206.266 173.396 206.647 169.864C206.647 169.864 195.487 175.602 170.186 171.059Z" fill="#263238" stroke="#263238" stroke-linecap="round" stroke-linejoin="round"/>
<path d="M184.718 178.997C184.718 178.997 184.064 196.27 184.064 202.871C184.064 209.472 185.754 217.538 186.528 225.326C187.301 233.114 186.791 245.828 185.882 248.036C184.973 250.244 184.327 251.04 184.455 252.707C184.583 254.375 184.718 256.725 184.718 256.725" stroke="white" stroke-linecap="round" stroke-linejoin="round"/>
<path d="M182.637 78.5275C182.637 78.5275 181.886 76.1919 180.684 77.1006C179.483 78.0093 180.301 79.6991 181.338 81.3888C182.374 83.0786 183.538 83.4616 183.673 82.5529C183.809 81.6442 182.637 78.5275 182.637 78.5275Z" fill="white" stroke="#263238" stroke-linecap="round" stroke-linejoin="round"/>
<path d="M182.638 79.5714L181.339 75.8164C181.339 75.8164 175.894 73.6085 177.584 68.1562C179.274 62.7039 192.251 57.7773 195.751 57.7773C199.25 57.7773 206.002 62.4486 207.174 67.9009C208.345 73.3531 204.447 78.2797 204.447 78.2797C204.447 78.2797 202.758 83.0786 201.443 82.8233C200.129 82.5679 200.918 78.7979 199.235 75.8164C197.553 72.8349 196.509 71.3104 194.692 72.0614C192.874 72.8124 185.349 75.0654 184.704 76.0793C184.058 77.0931 182.901 80.2173 182.638 79.5714Z" fill="#263238" stroke="#263238" stroke-linecap="round" stroke-linejoin="round"/>
<path d="M208.982 133.035L209.628 136.407L201.585 148.866L203.402 151.72C207.218 149.176 210.704 146.169 213.781 142.768C218.971 137.061 219.489 136.28 219.489 133.944C219.489 131.608 217.679 127.583 217.679 127.583C217.679 127.583 214.044 133.035 208.982 133.035Z" fill="white" stroke="#263238" stroke-linecap="round" stroke-linejoin="round"/>
<path d="M164.989 125.51C164.989 125.51 162.39 131.736 162.916 133.681C163.442 135.626 172.386 147.049 172.386 147.049L173.941 142.768C173.941 142.768 170.569 135.761 170.569 133.426C170.569 131.09 171.74 126.547 171.74 126.547L164.989 125.51Z" stroke="#263238" stroke-linecap="round" stroke-linejoin="round"/>
<path d="M187.962 94.6215C187.962 94.6215 176.802 98.9022 174.722 99.5556C172.641 100.209 171.214 100.592 171.087 101.238C170.959 101.884 164.733 117.85 163.577 120.058C162.42 122.266 160.851 124.729 160.851 124.729C162.362 125.674 163.921 126.542 165.522 127.328C167.154 128.041 168.849 128.604 170.584 129.01L171.335 137.969L163.674 171.704C163.674 171.704 178.987 175.985 189.208 175.602C195.716 175.38 202.151 174.154 208.284 171.967C210.236 171.314 213.218 170.15 213.218 170.15L203.455 133.426L204.206 127.974L204.724 133.298C204.724 133.298 209.914 134.462 212.895 133.681C215.877 132.9 219.654 129.926 219.654 129.926L210.049 99.9536L192.145 95.0196L187.962 94.6215Z" fill="#92E3A9" stroke="#263238" stroke-linecap="round" stroke-linejoin="round"/>
<path d="M200.571 97.3026L192.243 95.012L187.962 94.6215L184.109 96.1235C184.034 98.1663 183.937 101.643 183.937 105.811C183.937 112.57 184.688 118.533 186.663 117.362C188.638 116.19 197.928 103.611 199.505 100.089C199.931 99.1887 200.288 98.2573 200.571 97.3026Z" fill="#92E3A9" stroke="#263238" stroke-linecap="round" stroke-linejoin="round"/>
<path d="M204.311 127.974C204.048 127.718 202.884 116.551 202.884 116.551" stroke="#263238" stroke-linecap="round" stroke-linejoin="round"/>
<path d="M170.568 129.01C170.568 129.01 169.659 124.601 169.922 122.912C170.185 121.222 171.995 111.234 171.995 111.234" stroke="#263238" stroke-linecap="round" stroke-linejoin="round"/>
<path d="M174.985 147.702C174.985 147.702 169.014 149.647 169.014 150.038C169.014 150.428 168.879 152.238 168.879 152.238L174.985 149.385V147.702Z" stroke="#263238" stroke-linecap="round" stroke-linejoin="round"/>
<path d="M190.816 148.611L190.553 150.293L203.53 153.665L204.176 152.374L190.816 148.611Z" stroke="#263238" stroke-linecap="round" stroke-linejoin="round"/>
<path d="M195.096 122.807C194.918 122.807 194.748 122.736 194.623 122.611C194.498 122.485 194.427 122.315 194.427 122.138C194.427 119.885 195.546 114.448 196.635 109.191C197.499 105.008 198.317 101.05 198.317 99.8109C198.351 99.128 198.238 98.4459 197.987 97.81C197.736 97.1741 197.352 96.5992 196.86 96.1235C195.306 94.6816 192.542 94.0958 188.652 94.3812C180.534 94.982 179.94 113.156 179.933 113.329C179.929 113.504 179.857 113.67 179.732 113.792C179.607 113.914 179.439 113.982 179.264 113.982C179.177 113.979 179.09 113.959 179.01 113.923C178.93 113.887 178.858 113.835 178.798 113.771C178.738 113.707 178.692 113.631 178.661 113.549C178.63 113.467 178.616 113.379 178.619 113.291C178.619 112.495 179.257 93.7654 188.577 93.0144C192.858 92.7064 195.959 93.4049 197.792 95.1172C198.416 95.7184 198.907 96.4445 199.231 97.248C199.556 98.0516 199.708 98.9147 199.677 99.7809C199.677 101.155 198.888 104.993 197.972 109.431C196.943 114.38 195.786 119.99 195.786 122.108C195.791 122.2 195.776 122.292 195.743 122.379C195.709 122.465 195.659 122.543 195.594 122.609C195.529 122.674 195.451 122.726 195.365 122.76C195.28 122.794 195.188 122.81 195.096 122.807Z" fill="#263238" stroke="#263238" stroke-linecap="round" stroke-linejoin="round"/>
<path d="M186.527 90.6036C186.527 90.6036 186.527 94.3586 186.399 95.1096C186.272 95.8606 186.399 99.135 186.399 103.551C186.399 107.967 187.15 110.941 188.217 109.904C189.283 108.868 196.132 99.6532 196.523 97.8357C196.752 96.8142 196.883 95.7731 196.913 94.7266L197.432 89.5297C197.432 89.5297 189.388 91.8653 186.009 90.8289" fill="white"/>
<path d="M186.527 90.6036C186.527 90.6036 186.527 94.3586 186.399 95.1096C186.272 95.8606 186.399 99.135 186.399 103.551C186.399 107.967 187.15 110.941 188.217 109.904C189.283 108.868 196.132 99.6532 196.523 97.8357C196.752 96.8142 196.883 95.7731 196.913 94.7266L197.432 89.5297C197.432 89.5297 189.388 91.8653 186.009 90.8289" stroke="#263238" stroke-linecap="round" stroke-linejoin="round"/>
<path d="M199.895 82.8157C200.571 87.3236 200.745 91.8926 200.413 96.4389C199.895 104.354 198.956 108.064 196.658 109.206C194.36 110.347 197.327 111.639 200.826 111.767C204.326 111.894 209.523 111.376 210.432 100.997C211.34 90.6186 203.815 83.8671 203.162 82.5679C202.995 82.2661 202.745 82.0187 202.441 81.855C202.137 81.6913 201.793 81.6181 201.449 81.6442C201.105 81.6703 200.776 81.7945 200.5 82.0022C200.225 82.2099 200.015 82.4922 199.895 82.8157Z" fill="#263238" stroke="#263238" stroke-linecap="round" stroke-linejoin="round"/>
<path d="M174.594 122.416H174.541C174.45 122.411 174.361 122.387 174.28 122.345C174.198 122.304 174.127 122.246 174.069 122.175C174.011 122.105 173.968 122.023 173.944 121.935C173.919 121.847 173.913 121.755 173.925 121.665C173.925 121.297 174.676 112.608 179.265 112.608C183.854 112.608 183.959 120.967 183.959 121.327C183.959 121.504 183.888 121.674 183.763 121.8C183.638 121.925 183.468 121.996 183.29 121.996C183.113 121.996 182.943 121.925 182.818 121.8C182.692 121.674 182.622 121.504 182.622 121.327C182.622 121.252 182.524 113.952 179.272 113.952C176.479 113.952 175.435 119.592 175.27 121.77C175.262 121.944 175.187 122.109 175.061 122.229C174.935 122.349 174.768 122.416 174.594 122.416Z" fill="#263238"/>
<path d="M174.594 121.229C174.594 121.229 174.594 127.718 174.849 129.01C175.104 130.302 178.356 133.035 182.246 134.725" stroke="#263238" stroke-width="2" stroke-linecap="round" stroke-linejoin="round"/>
<path d="M183.027 120.418C183.027 120.418 183.282 126.907 181.991 129.761C180.699 132.615 176.801 133.786 175.111 134.432" stroke="#263238" stroke-width="2" stroke-linecap="round" stroke-linejoin="round"/>
<path d="M184.064 134.98C184.04 134.687 183.907 134.413 183.691 134.213C183.474 134.013 183.191 133.903 182.896 133.903C182.602 133.903 182.318 134.013 182.102 134.213C181.885 134.413 181.752 134.687 181.728 134.98C181.715 135.142 181.736 135.304 181.789 135.457C181.842 135.61 181.926 135.75 182.035 135.869C182.145 135.988 182.278 136.082 182.426 136.147C182.574 136.212 182.734 136.246 182.896 136.246C183.058 136.246 183.218 136.212 183.366 136.147C183.514 136.082 183.647 135.988 183.757 135.869C183.867 135.75 183.951 135.61 184.004 135.457C184.056 135.304 184.077 135.142 184.064 134.98Z" fill="white" stroke="#263238" stroke-linecap="round" stroke-linejoin="round"/>
<path d="M176.021 134.725C176.022 134.493 175.955 134.266 175.827 134.072C175.699 133.878 175.517 133.727 175.303 133.637C175.089 133.547 174.853 133.523 174.625 133.568C174.398 133.612 174.188 133.723 174.024 133.886C173.859 134.05 173.747 134.259 173.701 134.486C173.655 134.714 173.678 134.95 173.766 135.164C173.855 135.379 174.005 135.562 174.198 135.691C174.39 135.82 174.617 135.889 174.849 135.889C175.159 135.889 175.456 135.767 175.675 135.549C175.895 135.33 176.019 135.034 176.021 134.725Z" fill="white" stroke="#263238" stroke-linecap="round" stroke-linejoin="round"/>
<path d="M198.986 124.601C198.988 123.805 198.753 123.025 198.311 122.362C197.869 121.699 197.241 121.182 196.505 120.876C195.769 120.571 194.959 120.491 194.177 120.646C193.396 120.801 192.678 121.184 192.115 121.748C191.551 122.311 191.168 123.029 191.013 123.81C190.857 124.592 190.938 125.402 191.243 126.138C191.549 126.874 192.066 127.502 192.729 127.944C193.392 128.386 194.172 128.621 194.968 128.619C196.033 128.617 197.054 128.193 197.807 127.44C198.56 126.687 198.984 125.666 198.986 124.601Z" fill="white" stroke="#263238" stroke-linecap="round" stroke-linejoin="round"/>
<path d="M197.169 124.601C197.169 124.164 197.039 123.737 196.796 123.374C196.553 123.011 196.208 122.728 195.804 122.561C195.4 122.394 194.956 122.351 194.527 122.437C194.099 122.522 193.705 122.733 193.397 123.043C193.088 123.352 192.879 123.747 192.794 124.175C192.71 124.604 192.755 125.048 192.923 125.452C193.091 125.855 193.376 126.199 193.74 126.441C194.104 126.683 194.531 126.811 194.968 126.809C195.553 126.807 196.112 126.574 196.525 126.16C196.937 125.746 197.169 125.186 197.169 124.601Z" fill="white" stroke="#263238" stroke-linecap="round" stroke-linejoin="round"/>
<path d="M197.169 69.4479C197.169 69.4479 185.882 73.8563 184.455 74.6073C183.841 74.9784 183.189 75.2831 182.51 75.516C182.51 75.516 183.156 85.3766 183.418 87.9751C183.681 90.5736 187.827 93.0368 191.462 92.9092C195.097 92.7815 198.078 90.8289 198.731 89.6649C199.385 88.5008 201.195 84.9936 201.195 84.9936C201.195 84.9936 205.475 84.2426 205.701 80.4501C205.926 76.6575 204.664 77.446 203.237 78.2421C201.811 79.0382 201.029 79.5413 201.029 79.5413C201.307 78.1647 201.075 76.7341 200.376 75.516C199.25 73.6009 197.432 71.2653 197.169 69.4479Z" fill="white" stroke="#263238" stroke-linecap="round" stroke-linejoin="round"/>
<path d="M187.962 81.5165C187.962 81.5165 188.998 83.0711 189.907 82.9435" stroke="#263238" stroke-linecap="round" stroke-linejoin="round"/>
<path d="M187.571 83.8521C187.571 83.8521 189.772 85.9324 193.579 84.2426" stroke="#263238" stroke-linecap="round" stroke-linejoin="round"/>
<path d="M193.151 78.3999C193.151 78.3999 195.81 77.2358 197.304 79.3086" stroke="#263238" stroke-width="1.5" stroke-linecap="round" stroke-linejoin="round"/>
<path d="M187.962 78.1445C187.962 78.1445 185.882 76.8453 184.327 77.8816" stroke="#263238" stroke-width="1.5" stroke-linecap="round" stroke-linejoin="round"/>
<path d="M189.486 77.6563C189.488 78.3818 189.274 79.0914 188.872 79.6953C188.469 80.2991 187.897 80.77 187.227 81.0483C186.557 81.3267 185.82 81.3999 185.108 81.2587C184.396 81.1175 183.743 80.7683 183.23 80.2553C182.717 79.7423 182.367 79.0886 182.226 78.377C182.085 77.6654 182.158 76.9279 182.437 76.2579C182.715 75.5879 183.186 75.0156 183.79 74.6135C184.394 74.2113 185.103 73.9975 185.829 73.999C186.798 74.001 187.727 74.3869 188.413 75.0724C189.098 75.7578 189.484 76.687 189.486 77.6563Z" stroke="#263238" stroke-linecap="round" stroke-linejoin="round"/>
<path d="M198.611 78.6852C198.613 79.4104 198.399 80.1197 197.997 80.7234C197.595 81.327 197.023 81.7979 196.354 82.0765C195.684 82.355 194.947 82.4287 194.236 82.2881C193.524 82.1475 192.871 81.7991 192.357 81.2868C191.844 80.7746 191.494 80.1216 191.352 79.4105C191.21 78.6993 191.282 77.9621 191.56 77.292C191.837 76.6219 192.306 76.049 192.909 75.646C193.512 75.243 194.221 75.0278 194.946 75.0278C195.916 75.0298 196.846 75.4155 197.533 76.1008C198.219 76.786 198.607 77.7151 198.611 78.6852Z" stroke="#263238" stroke-linecap="round" stroke-linejoin="round"/>
<path d="M189.486 77.6564C189.748 77.5676 190.029 77.5507 190.3 77.6075C190.571 77.6643 190.822 77.7927 191.026 77.9793" stroke="#263238" stroke-linecap="round" stroke-linejoin="round"/>
<path d="M198.738 79.2635L202.336 78.7528" stroke="#263238" stroke-linecap="round" stroke-linejoin="round"/>
<path d="M46.1663 253.631C45.1716 255.744 43.9476 257.741 42.5165 259.587C40.3461 262.253 39.7978 264.153 42.156 265.805C44.5141 267.457 48.8099 267.202 50.9728 264.536C53.1356 261.87 56.6203 254.517 56.6203 254.517C56.6203 254.517 49.0202 252.234 46.1663 253.631Z" fill="white" stroke="#263238" stroke-linecap="round" stroke-linejoin="round"/>
<path d="M72.6157 255.276C72.6157 255.276 76.3708 260.225 78.6238 262.786C80.8768 265.347 85.1349 266.586 87.4105 266.458C89.686 266.331 92.9529 265.572 90.7449 261.517C88.537 257.461 83.9258 253.526 83.9258 253.526C83.9258 253.526 79.1044 253.526 75.7925 253.143C72.4806 252.76 72.4505 254.517 72.6157 255.276Z" fill="white" stroke="#263238" stroke-linecap="round" stroke-linejoin="round"/>
<path d="M48.2383 162.062C48.2383 162.062 46.7363 179.335 47.247 191.486C47.7577 203.637 45.5197 227.887 44.7687 233.82C44.0177 239.753 45.4521 249.546 45.5197 251.701C45.5873 253.856 45.6624 255.006 45.6624 255.006C45.6624 255.006 46.7739 254.255 50.8668 255.006C52.7146 255.4 54.5902 255.652 56.4768 255.757C58.1654 252.9 59.5618 249.881 60.6449 246.744C61.869 242.689 61.1781 238.483 61.0805 236.343C60.9828 234.203 60.6299 231.905 60.8702 231.522C61.1105 231.139 66.1272 194.873 66.3976 186.882C66.7049 181.465 67.5093 176.088 68.8008 170.818C68.8008 170.818 71.1965 181.978 71.3842 186.289C71.572 190.6 70.9562 225.731 71.2641 232.851C71.572 239.97 71.0237 241.863 70.2127 243.635C69.4016 245.408 69.6945 246.294 70.2652 247.691C70.836 249.088 72.6309 255.298 72.6309 255.298C72.6309 255.298 81.7856 255.809 83.0248 255.171C84.2639 254.532 84.7446 253.909 84.722 253.526C84.6995 253.143 89.1304 244.011 88.7098 240.211C88.2893 236.411 87.8086 237.042 87.3806 230.192C86.9525 223.343 89.7537 165.606 89.7462 162.602C89.7387 159.598 89.2355 165.388 70.5656 161.851C51.8957 158.314 48.7716 159.651 48.2383 162.062Z" fill="#92E3A9" stroke="#263238" stroke-linecap="round" stroke-linejoin="round"/>
<path d="M73.1572 250.342C73.1572 250.342 79.0225 245.265 83.9116 243.996L73.1572 250.342Z" fill="white"/>
<path d="M73.1572 250.342C73.1572 250.342 79.0225 245.265 83.9116 243.996" stroke="#263238" stroke-linecap="round" stroke-linejoin="round"/>
<path d="M49.207 247.924C49.207 247.924 56.5368 244.371 58.6546 243.485L49.207 247.924Z" fill="white"/>
<path d="M49.207 247.924C49.207 247.924 56.5368 244.371 58.6546 243.485" stroke="#263238" stroke-linecap="round" stroke-linejoin="round"/>
<path d="M61.508 68.2163C61.508 68.2163 59.5403 63.7778 58.0834 65.3024C56.6264 66.8269 57.7304 68.8471 59.7356 71.2578C61.7408 73.6685 63.3254 72.144 62.9048 71.1302C62.4843 70.1163 61.508 68.2163 61.508 68.2163Z" fill="white" stroke="#263238" stroke-linecap="round" stroke-linejoin="round"/>
<path d="M80.5543 65.8055C80.5543 65.8055 82.5219 61.4947 84.1291 63.5525C85.7362 65.6102 82.2816 70.6569 81.433 71.5431C80.5844 72.4293 80.0361 65.7078 80.0361 65.7078L80.5543 65.8055Z" fill="white" stroke="#263238" stroke-linecap="round" stroke-linejoin="round"/>
<path d="M37.8371 121.357C37.8371 121.357 37.2889 129.22 36.6205 131.248C35.256 136.027 34.618 140.984 34.7279 145.952C34.9908 151.908 37.3264 164.848 37.3715 168.775C37.4165 172.703 36.1924 173.597 37.5067 174.611C38.8209 175.625 41.6146 178.674 42.6285 178.674C43.6423 178.674 45.1894 179.177 45.1519 178.418C45.1143 177.66 44.6186 177.78 44.1906 176.766C43.6441 175.288 43.1975 173.775 42.8538 172.238C43.1622 171.118 43.5359 170.017 43.9728 168.941C43.9728 168.941 44.874 172.11 45.0467 173.131C45.2195 174.153 46.6313 174.521 46.5487 172.621C46.4661 170.721 46.4286 169.955 46.3384 167.927C46.2483 165.899 44.6487 164.127 43.9728 163.105C43.2969 162.084 42.7637 161.461 42.7411 161.078C42.7186 160.695 44.9266 147.259 44.9942 142.565C45.0617 137.872 45.1293 134.064 45.4673 133.178C45.8052 132.292 47.4875 124.301 47.4875 124.301L37.8371 121.357Z" fill="white" stroke="#263238" stroke-linecap="round" stroke-linejoin="round"/>
<path d="M100.561 121.733C100.561 121.733 101.101 129.641 101.777 131.728C103.125 136.57 103.76 141.581 103.662 146.606C103.399 152.546 101.049 165.276 101.004 169.203C100.959 173.131 102.19 174.123 100.876 175.024C99.5618 175.925 96.7605 178.719 95.7467 178.636C94.7328 178.553 93.1933 178.914 93.2233 178.155C93.2534 177.397 93.7565 177.57 94.1846 176.593C94.7394 175.146 95.1887 173.66 95.5289 172.147C95.218 170.993 94.8419 169.857 94.4024 168.745C94.4024 168.745 93.5012 171.839 93.3285 172.838C93.1557 173.837 91.7513 174.092 91.8264 172.2C91.9015 170.307 91.9391 169.549 92.0292 167.529C92.1193 165.509 93.719 163.871 94.4024 162.918C95.0858 161.964 95.6115 161.37 95.634 160.995C95.6566 160.619 93.4486 146.981 93.381 142.28C93.3134 137.579 93.2534 133.771 92.9079 132.855C92.5624 131.939 90.8877 123.798 90.8877 123.798L100.561 121.733Z" fill="white" stroke="#263238" stroke-linecap="round" stroke-linejoin="round"/>
<path d="M65.5722 82.8007C65.5722 82.8007 58.3626 86.2253 54.0068 88.1253C49.651 90.0253 44.1762 92.3084 44.2438 93.2021C44.3114 94.0958 39.6026 111.842 38.1156 115.522C36.6286 119.202 35.2393 122.116 35.2393 122.116C35.2393 122.116 40.5639 125.675 44.0185 126.426C46.2449 126.898 48.5048 127.194 50.7775 127.313L46.6695 163.841C46.6695 163.841 54.9305 167.138 67.8703 167.266C75.8992 167.325 83.9244 166.901 91.9024 165.997C91.9024 165.997 93.119 135.957 92.9913 133.02C92.9032 131.411 92.961 129.797 93.1641 128.199C95.1351 128.629 97.1836 128.543 99.112 127.951C100.808 127.32 102.47 126.6 104.091 125.796C104.091 125.796 97.7902 100.682 96.7538 97.2575C95.7175 93.8329 96.1981 93.3297 95.2969 92.9467C94.3957 92.5637 84.4374 88.253 81.1856 86.3529C77.9337 84.4529 76.6796 84.4454 73.8333 83.5592C70.987 82.673 67.0367 81.5315 65.5722 82.8007Z" fill="#92E3A9" stroke="#263238" stroke-linecap="round" stroke-linejoin="round"/>
<path d="M93.1775 128.199L91.5703 105.676" stroke="#263238" stroke-linecap="round" stroke-linejoin="round"/>
<path d="M51.0771 139.997L65.1433 139.614C65.1433 139.614 64.52 157.248 64.0919 159.14C63.6639 161.033 60.8101 162.309 57.1226 162.182C53.4352 162.054 51.2047 160.282 50.7842 159.395" stroke="#263238" stroke-linecap="round" stroke-linejoin="round"/>
<path d="M50.2881 142.28L65.1204 142.152" stroke="#263238" stroke-linecap="round" stroke-linejoin="round"/>
<path d="M89.341 162.189C87.9591 162.572 84.6622 162.572 83.9413 160.544C83.2203 158.517 83.6934 140.38 83.6934 140.38L90.9331 140.628" stroke="#263238" stroke-linecap="round" stroke-linejoin="round"/>
<path d="M83.6328 141.897L90.5195 142.911" stroke="#263238" stroke-linecap="round" stroke-linejoin="round"/>
<path d="M50.7773 127.313C50.7773 127.313 51.288 109.942 51.0853 105.376" stroke="#263238" stroke-linecap="round" stroke-linejoin="round"/>
<path d="M63.4248 74.2994C63.4248 74.2994 64.5213 84.8134 64.5663 85.97C64.6114 87.1265 65.8956 90.2807 67.1122 91.9329C68.3289 93.5851 71.7309 98.9097 73.0827 97.8884C74.4345 96.867 78.2421 91.1669 78.6101 87.9977C78.9781 84.8284 79.1583 77.3484 79.1583 77.3484C79.1583 77.3484 74.2242 77.6038 70.4842 76.3346C66.7442 75.0654 63.4248 74.2994 63.4248 74.2994Z" fill="white" stroke="#263238" stroke-linecap="round" stroke-linejoin="round"/>
<path d="M58.1673 58.5734L60.9685 67.4578C60.9685 67.4578 62.0199 74.0516 63.9124 76.7101C65.805 79.3687 72.4363 83.1837 75.4478 82.4177C78.4593 81.6517 82.0116 78.8655 81.8764 75.8239C81.7412 72.7824 81.1254 63.9055 81.208 60.481C81.2906 57.0564 80.457 50.0796 78.3842 48.1795C76.3115 46.2795 69.3722 45.1305 64.3931 47.1657C59.4139 49.2009 56.0344 52.9935 58.1673 58.5734Z" fill="#263238" stroke="#263238" stroke-linecap="round" stroke-linejoin="round"/>
<path d="M61.1262 68.2163C61.1262 68.2163 60.8784 68.344 61.5317 65.8056C62.1851 63.2672 64.1527 61.998 64.348 60.7363C64.5433 59.4746 61.8697 59.0841 62.1626 57.1841C62.4555 55.284 65.069 53.8872 70.6189 53.2488C76.1688 52.6105 79.8637 55.9149 79.6835 57.5596C79.5032 59.2043 79.0076 59.4671 79.8186 60.6086C80.6297 61.7502 80.9752 63.9055 81.0353 65.1747C81.0953 66.4439 81.7863 71.0025 80.5847 72.3994C79.3831 73.7962 78.4819 73.5409 77.2878 72.3994C76.0937 71.2578 75.6506 69.7408 72.992 69.7408C70.3335 69.7408 69.4848 70.7547 69.0192 71.7685C68.5536 72.7824 68.103 74.0215 66.586 74.0215C65.069 74.0215 63.9875 72.6247 62.9061 71.1001C62.2471 70.181 61.6524 69.2174 61.1262 68.2163Z" fill="white" stroke="#263238" stroke-linecap="round" stroke-linejoin="round"/>
<path d="M72.5561 61.9979C72.5561 61.9979 75.0118 68.8471 74.9067 69.3577C74.8016 69.8684 73.6 71.3854 72.1956 71.2578C70.7912 71.1301 70.0928 69.4854 70.0928 69.4854" stroke="#263238" stroke-linecap="round" stroke-linejoin="round"/>
<path d="M73.2475 61.0892C73.1803 60.86 73.1659 60.6185 73.2052 60.3829C73.2445 60.1473 73.3366 59.9236 73.4746 59.7286C73.6125 59.5336 73.7928 59.3723 74.0018 59.2568C74.2109 59.1413 74.4434 59.0745 74.6819 59.0615C75.4667 59.0235 76.2507 59.1509 76.983 59.4355C77.7153 59.7202 78.3795 60.1557 78.9326 60.7137" stroke="#263238" stroke-width="2" stroke-linecap="round" stroke-linejoin="round"/>
<path d="M69.5517 60.3382C69.1893 60.0687 68.7715 59.8832 68.3287 59.7948C67.8858 59.7065 67.4288 59.7177 66.9908 59.8275C65.4888 60.2105 63.6789 62.4936 63.7014 62.8766" stroke="#263238" stroke-width="2" stroke-linecap="round" stroke-linejoin="round"/>
<path d="M69.0645 64.0332C69.0645 64.664 68.8017 65.1747 68.4112 65.1747C68.0206 65.1747 67.6602 64.664 67.6602 64.0332C67.6602 63.4023 67.923 62.8917 68.306 62.8917C68.689 62.8917 69.0345 63.4023 69.0645 64.0332Z" fill="#263238"/>
<path d="M76.4008 63.6502C76.4008 64.281 76.1379 64.7917 75.7549 64.7917C75.3719 64.7917 75.0039 64.281 75.0039 63.6502C75.0039 63.0194 75.2668 62.5087 75.6498 62.5087C76.0328 62.5087 76.3707 63.0194 76.4008 63.6502Z" fill="#263238"/>
<path d="M69.8828 74.0516C69.8828 74.0516 72.3386 75.1931 76.0711 73.5409" stroke="white" stroke-width="2" stroke-linecap="round" stroke-linejoin="round"/>
<path d="M60.8477 85.1213C60.8477 85.1213 64.6027 98.0535 68.6355 106.555C72.6684 115.056 75.8677 121.012 75.8677 121.012C75.8677 121.012 81.9433 100.592 81.9133 93.9756C81.8832 87.3593 81.8457 86.6233 81.8457 86.6233" stroke="#263238" stroke-linecap="round" stroke-linejoin="round"/>
<path d="M80.3676 133.906H72.6248L72.0615 120.974H79.7968L80.3676 133.906Z" fill="white" stroke="#263238" stroke-linecap="round" stroke-linejoin="round"/>
<path d="M137.246 259.211C137.246 259.211 141.302 262.508 144.216 263.394C147.13 264.28 148.654 264.791 148.023 266.188C147.392 267.585 145.357 268.088 139.402 268.216C133.446 268.343 132.297 267.074 130.014 266.436C127.731 265.797 124.562 266.436 123.548 265.174C122.534 263.912 122.91 261.997 122.91 259.97C122.91 257.942 131.666 257.056 133.95 257.814C135.095 258.16 136.201 258.629 137.246 259.211Z" fill="white" stroke="#263238" stroke-linecap="round" stroke-linejoin="round"/>
<path d="M125.703 261.75C125.703 261.75 129.511 265.805 132.68 267.577C135.849 269.35 137.621 270.626 136.863 271.513C136.104 272.399 133.694 273.54 127.348 272.909C121.002 272.279 119.74 270.874 116.699 268.719C113.657 266.563 112.26 266.819 111.246 265.677C110.232 264.536 110.232 261.997 110.232 261.997L125.703 261.75Z" fill="white" stroke="#263238" stroke-linecap="round" stroke-linejoin="round"/>
<path d="M144.727 167.897C144.727 167.897 142.474 198.08 141.557 203.532C140.641 208.984 139.778 212.033 139.905 215.833C140.033 219.633 141.174 230.545 138.891 237.019C136.608 243.493 136.638 251.348 136.864 253.631C137.089 255.914 137.878 258.956 137.75 259.466C137.622 259.977 133.95 261.997 131.284 262.508C129.608 262.816 127.91 262.984 126.207 263.011C123.627 263.922 120.947 264.52 118.224 264.791C114.416 265.046 109.212 263.905 109.212 263.905C109.212 263.905 109.212 254.517 108.701 248.427C108.19 242.336 106.448 232.581 108.573 225.221C110.699 217.861 110.226 213.956 110.075 211.523C109.925 209.089 110.075 198.207 109.948 197.824C109.82 197.441 109.062 165.741 109.062 165.741C109.062 165.741 122.88 167.769 132.14 166.883C141.4 165.997 143.81 165.997 143.81 165.997C143.81 165.997 145.868 163.714 144.727 167.897Z" fill="#263238" stroke="#263238" stroke-linecap="round" stroke-linejoin="round"/>
<path d="M126.846 261.239C126.839 259.186 126.587 257.141 126.095 255.148C125.344 252.617 125.201 243.613 125.584 239.933C125.967 236.253 127.837 227.001 127.837 221.796C127.837 216.592 128.348 208.609 128.348 208.609" stroke="white" stroke-linecap="round" stroke-linejoin="round"/>
<path d="M153.093 205.815L138.644 205.687C138.013 205.687 138.013 196.052 138.013 196.052L153.093 205.815Z" fill="white" stroke="#263238" stroke-linecap="round" stroke-linejoin="round"/>
<path d="M122.535 169.677C122.535 169.677 136.992 170.563 145.11 169.166L142.316 100.937C142.316 100.937 140.416 97.7682 135.34 95.9883C130.263 94.2084 124.18 96.7393 122.024 99.1575C119.869 101.576 121.393 169.421 121.393 169.421L122.535 169.677Z" fill="#92E3A9" stroke="#263238" stroke-linecap="round" stroke-linejoin="round"/>
<path d="M123.165 95.9884C123.165 95.9884 108.836 103.221 106.681 104.49C104.525 105.759 104.428 110.318 104.428 112.48C104.428 114.643 105.059 210.636 105.059 210.636C110.482 210.991 115.927 210.435 121.168 208.992C126.336 207.639 131.199 205.315 135.497 202.143L133.086 150.526L130.382 105.248C130.382 105.248 128.745 92.6915 123.165 95.9884Z" fill="white" stroke="#263238" stroke-linecap="round" stroke-linejoin="round"/>
<path d="M127.477 91.2946C127.477 91.2946 124.18 91.6776 122.783 93.5476C121.964 94.6509 121.363 95.8996 121.01 97.2275L119.741 108.643L124.052 107.629L121.897 112.698C121.897 112.698 124.052 119.044 126.463 124.369C128.873 129.693 132.426 140.598 132.426 140.598L130.773 106.487C130.773 106.487 130.773 96.5966 130.022 94.4713C129.271 92.346 128.49 91.2946 127.477 91.2946Z" fill="white" stroke="#263238" stroke-linecap="round" stroke-linejoin="round"/>
<path d="M135.722 98.2714L138.26 201.632L153.092 205.815L150.937 127.065C150.937 127.065 151.32 106.788 150.051 103.979C148.782 101.17 137.374 95.4852 136.232 95.6354C135.091 95.7856 135.722 98.2714 135.722 98.2714Z" fill="white" stroke="#263238" stroke-linecap="round" stroke-linejoin="round"/>
<path d="M135.722 93.0745C136.646 93.2996 137.509 93.7223 138.254 94.3135C138.998 94.9048 139.605 95.6504 140.033 96.499C141.302 99.2852 144.599 107.914 144.599 107.914L140.416 108.417L144.854 111.587L136.991 141.139L136.105 109.153L135.354 95.9658C135.354 95.9658 134.453 93.833 135.722 93.0745Z" fill="white" stroke="#263238" stroke-linecap="round" stroke-linejoin="round"/>
<path d="M126.462 86.9838C126.462 86.9838 126.973 90.6637 126.207 92.6914C125.441 94.7192 128.617 101.065 129.886 104.993C131.156 108.921 132.425 112.097 133.183 111.714C133.942 111.331 136.608 96.499 136.48 94.5915C136.353 92.6839 137.622 86.9838 137.622 86.9838C137.622 86.9838 130.645 89.0115 126.462 86.9838Z" fill="white" stroke="#263238" stroke-linecap="round" stroke-linejoin="round"/>
<path d="M117.555 83.1161C121.55 83.1161 124.788 79.7336 124.788 75.5611C124.788 71.3885 121.55 68.006 117.555 68.006C113.561 68.006 110.323 71.3885 110.323 75.5611C110.323 79.7336 113.561 83.1161 117.555 83.1161Z" fill="#263238" stroke="#263238" stroke-linecap="round" stroke-linejoin="round"/>
<path d="M121.265 79.1133C121.265 79.1133 119.996 75.8164 118.472 77.0856C116.947 78.3548 118.472 81.141 119.613 82.7932C120.755 84.4454 122.91 83.6794 122.662 82.0422C122.457 80.9617 121.976 79.9526 121.265 79.1133Z" fill="white" stroke="#263238" stroke-linecap="round" stroke-linejoin="round"/>
<path d="M140.896 77.0631C140.896 77.0631 141.535 73.8939 142.398 76.0492C142.781 76.8935 142.957 77.8166 142.913 78.7423C142.868 79.6681 142.604 80.57 142.143 81.3738C141.392 82.643 141.512 82.5154 141.257 81.3738C141.057 79.9447 140.937 78.5056 140.896 77.0631Z" fill="white" stroke="#263238" stroke-linecap="round" stroke-linejoin="round"/>
<path d="M119.485 73.0077C119.485 73.0077 121.896 84.6708 123.421 87.4645C124.945 90.2582 130.014 94.9745 134.58 93.0444C139.147 91.1144 141.685 87.5922 141.685 83.2814C141.685 78.9707 142.316 73.5184 141.557 68.8171C141.174 66.6764 140.073 64.7304 138.434 63.3007C136.795 61.8711 134.718 61.0432 132.545 60.9541C128.482 60.8264 122.144 63.1095 120.875 67.1724C120.217 69.0659 119.751 71.0209 119.485 73.0077Z" fill="white" stroke="#263238" stroke-linecap="round" stroke-linejoin="round"/>
<path d="M119.613 77.3184C119.613 77.3184 126.718 74.5247 131.284 71.1001C135.85 67.6756 137.247 65.1447 137.247 65.1447C137.247 65.1447 139.402 70.9725 140.288 72.88C141.175 74.7875 141.933 76.9354 141.933 76.9354C141.933 76.9354 143.33 74.5247 143.33 69.4254C143.33 64.3261 141.933 60.2932 136.571 57.6272C131.209 54.9611 122.497 56.6133 118.547 60.4209C114.597 64.2285 115.378 70.4393 116.391 72.85C117.185 74.5228 118.277 76.037 119.613 77.3184Z" fill="#263238" stroke="#263238" stroke-linecap="round" stroke-linejoin="round"/>
<path d="M135.339 72.6246C135.339 72.6246 134.588 72.7523 134.588 75.0354C134.588 77.3184 135.339 81.1185 135.219 81.6292C135.098 82.1398 133.717 83.6569 132.815 82.7707" stroke="#263238" stroke-linecap="round" stroke-linejoin="round"/>
<path d="M129.632 85.0538C129.632 85.0538 132.929 86.4506 137.142 83.9122" stroke="#263238" stroke-linecap="round" stroke-linejoin="round"/>
<path d="M135.85 72.3543C135.85 72.3543 138.523 71.333 140.288 72.865" stroke="#263238" stroke-linecap="round" stroke-linejoin="round"/>
<path d="M131.412 72.88C130.251 72.5352 129.025 72.4704 127.834 72.691C126.644 72.9117 125.523 73.4114 124.562 74.1492" stroke="#263238" stroke-linecap="round" stroke-linejoin="round"/>
<path d="M129.633 76.5524C129.633 77.3034 129.325 77.9493 128.942 77.9493C128.559 77.9493 128.243 77.326 128.243 76.5524C128.243 75.7789 128.551 75.1631 128.942 75.1631C129.332 75.1631 129.633 75.7864 129.633 76.5524Z" fill="#263238"/>
<path d="M137.892 76.0492C137.892 76.8002 137.577 77.4461 137.194 77.4461C136.811 77.4461 136.495 76.8227 136.495 76.0492C136.495 75.2757 136.811 74.6523 137.194 74.6523C137.577 74.6523 137.892 75.2757 137.892 76.0492Z" fill="#263238"/>
<path d="M145.996 127.44L143.743 123.76C143.105 122.747 140.191 123.13 138.794 123.13C138.068 123.205 137.37 123.448 136.753 123.839C136.137 124.23 135.62 124.758 135.242 125.383C134.739 126.396 132.456 128.049 133.342 129.063C134.228 130.076 136.639 129.438 137.022 129.693C137.405 129.949 140.574 132.104 141.716 132.487C142.323 132.71 142.972 132.795 143.616 132.735L145.996 127.44Z" stroke="#263238" stroke-linecap="round" stroke-linejoin="round"/>
<path d="M149.42 103.22C150.695 103.809 151.837 104.653 152.775 105.699C153.712 106.745 154.426 107.971 154.872 109.304C156.269 113.742 160.955 143.294 159.942 146.103C158.928 148.911 156.397 151.044 151.958 149.527C147.52 148.01 140.693 140.771 140.693 140.771L146.018 127.455L150.201 129.611L149.315 117.692" fill="white"/>
<path d="M149.42 103.22C150.695 103.809 151.837 104.653 152.775 105.699C153.712 106.745 154.426 107.971 154.872 109.304C156.269 113.742 160.955 143.294 159.942 146.103C158.928 148.911 156.397 151.044 151.958 149.527C147.52 148.01 140.693 140.771 140.693 140.771L146.018 127.455L150.201 129.611L149.315 117.692" stroke="#263238" stroke-linecap="round" stroke-linejoin="round"/>
<path d="M150.179 129.596C150.179 129.596 156.9 133.531 157.539 134.928" stroke="#263238" stroke-linecap="round" stroke-linejoin="round"/>
<path d="M141.677 111.842H117.202V146.088H141.677V111.842Z" fill="#263238" stroke="#263238" stroke-linecap="round" stroke-linejoin="round"/>
<path d="M128.243 135.686C128.243 135.686 132.929 133.148 134.326 131.751C135.723 130.354 135.978 130.249 136.737 130.249C138.603 130.249 140.468 130.121 142.317 129.866C143.068 129.611 142.7 131.368 142.317 131.766C141.934 132.164 139.531 132.66 139.531 132.66C139.531 132.66 143.586 132.277 143.714 133.546C143.805 133.91 143.793 134.292 143.68 134.65C143.568 135.008 143.358 135.327 143.075 135.574L142.7 135.957C142.7 135.957 143.075 138.615 142.7 139.884C142.324 141.154 141.558 141.537 139.906 141.784C137.701 141.925 135.487 141.799 133.312 141.409C132.043 141.154 127.732 142.04 127.732 142.04L128.243 135.686Z" fill="white" stroke="#263238" stroke-linecap="round" stroke-linejoin="round"/>
<path d="M111.375 102.207C111.375 102.207 103.865 103.851 102.618 104.61C101.371 105.368 97.1657 135.559 96.2795 140.658C95.3934 145.757 104.143 146.749 106.794 147.762C109.445 148.776 128.881 150.271 128.881 150.271L129.136 134.545L115.693 131.12L115.565 109.431" fill="white"/>
<path d="M111.375 102.207C111.375 102.207 103.865 103.851 102.618 104.61C101.371 105.368 97.1657 135.559 96.2795 140.658C95.3934 145.757 104.143 146.749 106.794 147.762C109.445 148.776 128.881 150.271 128.881 150.271L129.136 134.545L115.693 131.12L115.565 109.431" stroke="#263238" stroke-linecap="round" stroke-linejoin="round"/>
<path d="M115.685 131.12C115.685 131.12 110.992 128.965 107.95 130.106C104.909 131.248 102.37 137.083 102.37 137.083" stroke="#263238" stroke-linecap="round" stroke-linejoin="round"/>
<path d="M110.481 129.596C110.481 129.596 106.043 129.34 103.887 130.234C102.562 130.795 101.388 131.662 100.463 132.765" stroke="#263238" stroke-linecap="round" stroke-linejoin="round"/>
<path d="M134.58 110.7H125.959V113.494H134.58V110.7Z" fill="white" stroke="#263238" stroke-linecap="round" stroke-linejoin="round"/>
</svg>
