<svg width="67" height="65" viewBox="0 0 67 65" fill="none" xmlns="http://www.w3.org/2000/svg">
<g id="Users">
<path id="Vector" d="M30.7283 40.0968C33.4926 38.2844 35.5912 35.644 36.714 32.5661C37.8367 29.4882 37.9238 26.1361 36.9625 23.0056C36.0012 19.8752 34.0425 17.1325 31.376 15.1831C28.7095 13.2338 25.4769 12.1813 22.156 12.1813C18.8352 12.1813 15.6026 13.2338 12.9361 15.1831C10.2696 17.1325 8.31089 19.8752 7.34959 23.0056C6.38829 26.1361 6.47543 29.4882 7.59814 32.5661C8.72084 35.644 10.8195 38.2844 13.5838 40.0968C8.58348 41.9118 4.31311 45.2705 1.40987 49.6716C1.25729 49.895 1.1513 50.146 1.09808 50.41C1.04485 50.674 1.04545 50.9459 1.09983 51.2097C1.15421 51.4735 1.2613 51.724 1.41486 51.9467C1.56842 52.1694 1.7654 52.3598 1.99434 52.5069C2.22328 52.654 2.47962 52.7547 2.74845 52.8034C3.01729 52.852 3.29326 52.8475 3.56033 52.7902C3.82739 52.7329 4.08022 52.6238 4.30412 52.4694C4.52802 52.315 4.71852 52.1183 4.86456 51.8908C6.73728 49.0541 9.29985 46.7231 12.3196 45.1094C15.3393 43.4957 18.7204 42.6505 22.156 42.6505C25.5916 42.6505 28.9728 43.4957 31.9925 45.1094C35.0122 46.7231 37.5748 49.0541 39.4475 51.8908C39.75 52.3336 40.2173 52.6413 40.7484 52.7475C41.2795 52.8537 41.8316 52.7498 42.2855 52.4582C42.7394 52.1666 43.0585 51.7109 43.1739 51.1894C43.2893 50.668 43.1917 50.1228 42.9022 49.6716C39.999 45.2705 35.7286 41.9118 30.7283 40.0968ZM10.8123 27.4218C10.8123 25.2122 11.4776 23.0523 12.7241 21.2151C13.9705 19.3779 15.7422 17.9459 17.815 17.1004C19.8878 16.2548 22.1686 16.0336 24.3691 16.4646C26.5696 16.8957 28.5908 17.9597 30.1773 19.5221C31.7637 21.0845 32.8441 23.0752 33.2818 25.2423C33.7195 27.4094 33.4949 29.6557 32.6363 31.6971C31.7777 33.7385 30.3238 35.4833 28.4583 36.7109C26.5928 37.9385 24.3996 38.5937 22.156 38.5937C19.1485 38.5903 16.2652 37.4122 14.1386 35.3178C12.0119 33.2234 10.8157 30.3838 10.8123 27.4218ZM64.989 52.4824C64.5309 52.7766 63.9728 52.8796 63.4376 52.7686C62.9024 52.6577 62.4339 52.3419 62.135 51.8908C60.2645 49.0524 57.7023 46.7204 54.682 45.1074C51.6617 43.4943 48.2794 42.6517 44.8435 42.6562C44.2965 42.6562 43.7719 42.4422 43.3851 42.0613C42.9983 41.6803 42.781 41.1637 42.781 40.625C42.781 40.0862 42.9983 39.5696 43.3851 39.1886C43.7719 38.8077 44.2965 38.5937 44.8435 38.5937C46.5141 38.5922 48.1637 38.2272 49.6744 37.525C51.1852 36.8229 52.5198 35.8007 53.5829 34.5316C54.6461 33.2626 55.4115 31.7779 55.8245 30.1838C56.2375 28.5896 56.2879 26.9253 55.972 25.3097C55.6562 23.6941 54.982 22.1672 53.9975 20.838C53.013 19.5088 51.7426 18.4102 50.277 17.6206C48.8114 16.831 47.1868 16.37 45.5193 16.2704C43.8518 16.1709 42.1826 16.4353 40.6309 17.0447C40.3779 17.1524 40.1055 17.2091 39.8299 17.2114C39.5543 17.2137 39.281 17.1615 39.0262 17.058C38.7714 16.9546 38.5402 16.8018 38.3463 16.6089C38.1525 16.4159 37.9999 16.1866 37.8975 15.9346C37.7951 15.6825 37.7451 15.4129 37.7504 15.1414C37.7556 14.87 37.8161 14.6024 37.9281 14.3544C38.0402 14.1064 38.2015 13.883 38.4027 13.6975C38.6039 13.512 38.8408 13.368 39.0995 13.2742C42.6507 11.8793 46.6007 11.8291 50.1873 13.1333C53.774 14.4374 56.7431 17.0034 58.522 20.3364C60.301 23.6693 60.7636 27.5329 59.8206 31.182C58.8777 34.831 56.596 38.0068 53.4158 40.0968C58.4161 41.9118 62.6865 45.2705 65.5897 49.6716C65.8885 50.1228 65.993 50.6724 65.8804 51.1995C65.7677 51.7266 65.4471 52.1881 64.989 52.4824Z" fill="#00AF51"/>
</g>
</svg>
